<?xml version="1.0" encoding="UTF-8" standalone="no"?>
<!-- Created with matplotlib (https://matplotlib.org/) -->

<svg
   height="277.314375pt"
   version="1.1"
   viewBox="0 0 492.85425 277.314375"
   width="492.85425pt"
   id="svg672"
   sodipodi:docname="ICMProstate-iter.svg"
   inkscape:export-filename="ICMProstate-iter.png"
   inkscape:export-xdpi="192"
   inkscape:export-ydpi="192"
   inkscape:version="1.2.1 (9c6d41e410, 2022-07-14)"
   xmlns:inkscape="http://www.inkscape.org/namespaces/inkscape"
   xmlns:sodipodi="http://sodipodi.sourceforge.net/DTD/sodipodi-0.dtd"
   xmlns:xlink="http://www.w3.org/1999/xlink"
   xmlns="http://www.w3.org/2000/svg"
   xmlns:svg="http://www.w3.org/2000/svg"
   xmlns:rdf="http://www.w3.org/1999/02/22-rdf-syntax-ns#"
   xmlns:cc="http://creativecommons.org/ns#"
   xmlns:dc="http://purl.org/dc/elements/1.1/">
  <sodipodi:namedview
     id="namedview674"
     pagecolor="#ffffff"
     bordercolor="#000000"
     borderopacity="0.25"
     inkscape:showpageshadow="2"
     inkscape:pageopacity="0.0"
     inkscape:pagecheckerboard="0"
     inkscape:deskcolor="#d1d1d1"
     inkscape:document-units="pt"
     showgrid="false"
     inkscape:zoom="1.428979"
     inkscape:cx="262.77504"
     inkscape:cy="176.69959"
     inkscape:window-width="1920"
     inkscape:window-height="991"
     inkscape:window-x="-9"
     inkscape:window-y="-9"
     inkscape:window-maximized="1"
     inkscape:current-layer="svg672" />
  <metadata
     id="metadata2">
    <rdf:RDF>
      <cc:Work>
        <dc:type
           rdf:resource="http://purl.org/dc/dcmitype/StillImage" />
        <dc:date>2023-05-25T09:50:39.612813</dc:date>
        <dc:format>image/svg+xml</dc:format>
        <dc:creator>
          <cc:Agent>
            <dc:title>Matplotlib v3.3.2, https://matplotlib.org/</dc:title>
          </cc:Agent>
        </dc:creator>
      </cc:Work>
    </rdf:RDF>
  </metadata>
  <defs
     id="defs6">
    <style
       type="text/css"
       id="style4">*{stroke-linecap:butt;stroke-linejoin:round;}</style>
  </defs>
  <g
     id="figure_1">
    <g
       id="patch_1">
      <path
         d="M 0 277.314375  L 492.85425 277.314375  L 492.85425 0  L 0 0  z "
         style="fill:none;"
         id="path8" />
    </g>
    <g
       id="axes_1">
      <g
         id="patch_2">
        <path
           d="M 49.978125 239.758125  L 384.778125 239.758125  L 384.778125 22.318125  L 49.978125 22.318125  z "
           style="fill:#ffffff;"
           id="path11" />
      </g>
      <g
         id="matplotlib.axis_1">
        <g
           id="xtick_1">
          <g
             id="line2d_1">
            <defs
               id="defs15">
              <path
                 d="M 0 0  L 0 3.5  "
                 id="m692504fa14"
                 style="stroke:#000000;stroke-width:0.8;" />
            </defs>
            <g
               id="g19">
              <use
                 style="stroke:#000000;stroke-width:0.8;"
                 x="65.196307"
                 xlink:href="#m692504fa14"
                 y="239.758125"
                 id="use17" />
            </g>
          </g>
          <g
             id="text_1">
            <!-- $\mathdefault{10^{0}}$ -->
            <g
               transform="translate(56.396307 254.356562)scale(0.1 -0.1)"
               id="g32">
              <defs
                 id="defs24">
                <path
                   d="M 12.40625 8.296875  L 28.515625 8.296875  L 28.515625 63.921875  L 10.984375 60.40625  L 10.984375 69.390625  L 28.421875 72.90625  L 38.28125 72.90625  L 38.28125 8.296875  L 54.390625 8.296875  L 54.390625 0  L 12.40625 0  z "
                   id="DejaVuSans-49" />
                <path
                   d="M 31.78125 66.40625  Q 24.171875 66.40625 20.328125 58.90625  Q 16.5 51.421875 16.5 36.375  Q 16.5 21.390625 20.328125 13.890625  Q 24.171875 6.390625 31.78125 6.390625  Q 39.453125 6.390625 43.28125 13.890625  Q 47.125 21.390625 47.125 36.375  Q 47.125 51.421875 43.28125 58.90625  Q 39.453125 66.40625 31.78125 66.40625  z M 31.78125 74.21875  Q 44.046875 74.21875 50.515625 64.515625  Q 56.984375 54.828125 56.984375 36.375  Q 56.984375 17.96875 50.515625 8.265625  Q 44.046875 -1.421875 31.78125 -1.421875  Q 19.53125 -1.421875 13.0625 8.265625  Q 6.59375 17.96875 6.59375 36.375  Q 6.59375 54.828125 13.0625 64.515625  Q 19.53125 74.21875 31.78125 74.21875  z "
                   id="DejaVuSans-48" />
              </defs>
              <use
                 transform="translate(0 0.765625)"
                 xlink:href="#DejaVuSans-49"
                 id="use26" />
              <use
                 transform="translate(63.623047 0.765625)"
                 xlink:href="#DejaVuSans-48"
                 id="use28" />
              <use
                 transform="translate(128.203125 39.046875)scale(0.7)"
                 xlink:href="#DejaVuSans-48"
                 id="use30" />
            </g>
          </g>
        </g>
        <g
           id="xtick_2">
          <g
             id="line2d_2">
            <g
               id="g38">
              <use
                 style="stroke:#000000;stroke-width:0.8;"
                 x="217.710973"
                 xlink:href="#m692504fa14"
                 y="239.758125"
                 id="use36" />
            </g>
          </g>
          <g
             id="text_2">
            <!-- $\mathdefault{10^{1}}$ -->
            <g
               transform="translate(208.910973 254.356562)scale(0.1 -0.1)"
               id="g47">
              <use
                 transform="translate(0 0.684375)"
                 xlink:href="#DejaVuSans-49"
                 id="use41" />
              <use
                 transform="translate(63.623047 0.684375)"
                 xlink:href="#DejaVuSans-48"
                 id="use43" />
              <use
                 transform="translate(128.203125 38.965625)scale(0.7)"
                 xlink:href="#DejaVuSans-49"
                 id="use45" />
            </g>
          </g>
        </g>
        <g
           id="xtick_3">
          <g
             id="line2d_3">
            <g
               id="g53">
              <use
                 style="stroke:#000000;stroke-width:0.8;"
                 x="370.22564"
                 xlink:href="#m692504fa14"
                 y="239.758125"
                 id="use51" />
            </g>
          </g>
          <g
             id="text_3">
            <!-- $\mathdefault{10^{2}}$ -->
            <g
               transform="translate(361.42564 254.356562)scale(0.1 -0.1)"
               id="g65">
              <defs
                 id="defs57">
                <path
                   d="M 19.1875 8.296875  L 53.609375 8.296875  L 53.609375 0  L 7.328125 0  L 7.328125 8.296875  Q 12.9375 14.109375 22.625 23.890625  Q 32.328125 33.6875 34.8125 36.53125  Q 39.546875 41.84375 41.421875 45.53125  Q 43.3125 49.21875 43.3125 52.78125  Q 43.3125 58.59375 39.234375 62.25  Q 35.15625 65.921875 28.609375 65.921875  Q 23.96875 65.921875 18.8125 64.3125  Q 13.671875 62.703125 7.8125 59.421875  L 7.8125 69.390625  Q 13.765625 71.78125 18.9375 73  Q 24.125 74.21875 28.421875 74.21875  Q 39.75 74.21875 46.484375 68.546875  Q 53.21875 62.890625 53.21875 53.421875  Q 53.21875 48.921875 51.53125 44.890625  Q 49.859375 40.875 45.40625 35.40625  Q 44.1875 33.984375 37.640625 27.21875  Q 31.109375 20.453125 19.1875 8.296875  z "
                   id="DejaVuSans-50" />
              </defs>
              <use
                 transform="translate(0 0.765625)"
                 xlink:href="#DejaVuSans-49"
                 id="use59" />
              <use
                 transform="translate(63.623047 0.765625)"
                 xlink:href="#DejaVuSans-48"
                 id="use61" />
              <use
                 transform="translate(128.203125 39.046875)scale(0.7)"
                 xlink:href="#DejaVuSans-50"
                 id="use63" />
            </g>
          </g>
        </g>
        <g
           id="xtick_4">
          <g
             id="line2d_4">
            <defs
               id="defs70">
              <path
                 d="M 0 0  L 0 2  "
                 id="m8e7a4f08b2"
                 style="stroke:#000000;stroke-width:0.6;" />
            </defs>
            <g
               id="g74">
              <use
                 style="stroke:#000000;stroke-width:0.6;"
                 x="50.416108"
                 xlink:href="#m8e7a4f08b2"
                 y="239.758125"
                 id="use72" />
            </g>
          </g>
        </g>
        <g
           id="xtick_5">
          <g
             id="line2d_5">
            <g
               id="g80">
              <use
                 style="stroke:#000000;stroke-width:0.6;"
                 x="58.217618"
                 xlink:href="#m8e7a4f08b2"
                 y="239.758125"
                 id="use78" />
            </g>
          </g>
        </g>
        <g
           id="xtick_6">
          <g
             id="line2d_6">
            <g
               id="g86">
              <use
                 style="stroke:#000000;stroke-width:0.6;"
                 x="111.107796"
                 xlink:href="#m8e7a4f08b2"
                 y="239.758125"
                 id="use84" />
            </g>
          </g>
        </g>
        <g
           id="xtick_7">
          <g
             id="line2d_7">
            <g
               id="g92">
              <use
                 style="stroke:#000000;stroke-width:0.6;"
                 x="137.964296"
                 xlink:href="#m8e7a4f08b2"
                 y="239.758125"
                 id="use90" />
            </g>
          </g>
        </g>
        <g
           id="xtick_8">
          <g
             id="line2d_8">
            <g
               id="g98">
              <use
                 style="stroke:#000000;stroke-width:0.6;"
                 x="157.019286"
                 xlink:href="#m8e7a4f08b2"
                 y="239.758125"
                 id="use96" />
            </g>
          </g>
        </g>
        <g
           id="xtick_9">
          <g
             id="line2d_9">
            <g
               id="g104">
              <use
                 style="stroke:#000000;stroke-width:0.6;"
                 x="171.799484"
                 xlink:href="#m8e7a4f08b2"
                 y="239.758125"
                 id="use102" />
            </g>
          </g>
        </g>
        <g
           id="xtick_10">
          <g
             id="line2d_10">
            <g
               id="g110">
              <use
                 style="stroke:#000000;stroke-width:0.6;"
                 x="183.875785"
                 xlink:href="#m8e7a4f08b2"
                 y="239.758125"
                 id="use108" />
            </g>
          </g>
        </g>
        <g
           id="xtick_11">
          <g
             id="line2d_11">
            <g
               id="g116">
              <use
                 style="stroke:#000000;stroke-width:0.6;"
                 x="194.086153"
                 xlink:href="#m8e7a4f08b2"
                 y="239.758125"
                 id="use114" />
            </g>
          </g>
        </g>
        <g
           id="xtick_12">
          <g
             id="line2d_12">
            <g
               id="g122">
              <use
                 style="stroke:#000000;stroke-width:0.6;"
                 x="202.930775"
                 xlink:href="#m8e7a4f08b2"
                 y="239.758125"
                 id="use120" />
            </g>
          </g>
        </g>
        <g
           id="xtick_13">
          <g
             id="line2d_13">
            <g
               id="g128">
              <use
                 style="stroke:#000000;stroke-width:0.6;"
                 x="210.732285"
                 xlink:href="#m8e7a4f08b2"
                 y="239.758125"
                 id="use126" />
            </g>
          </g>
        </g>
        <g
           id="xtick_14">
          <g
             id="line2d_14">
            <g
               id="g134">
              <use
                 style="stroke:#000000;stroke-width:0.6;"
                 x="263.622463"
                 xlink:href="#m8e7a4f08b2"
                 y="239.758125"
                 id="use132" />
            </g>
          </g>
        </g>
        <g
           id="xtick_15">
          <g
             id="line2d_15">
            <g
               id="g140">
              <use
                 style="stroke:#000000;stroke-width:0.6;"
                 x="290.478963"
                 xlink:href="#m8e7a4f08b2"
                 y="239.758125"
                 id="use138" />
            </g>
          </g>
        </g>
        <g
           id="xtick_16">
          <g
             id="line2d_16">
            <g
               id="g146">
              <use
                 style="stroke:#000000;stroke-width:0.6;"
                 x="309.533952"
                 xlink:href="#m8e7a4f08b2"
                 y="239.758125"
                 id="use144" />
            </g>
          </g>
        </g>
        <g
           id="xtick_17">
          <g
             id="line2d_17">
            <g
               id="g152">
              <use
                 style="stroke:#000000;stroke-width:0.6;"
                 x="324.314151"
                 xlink:href="#m8e7a4f08b2"
                 y="239.758125"
                 id="use150" />
            </g>
          </g>
        </g>
        <g
           id="xtick_18">
          <g
             id="line2d_18">
            <g
               id="g158">
              <use
                 style="stroke:#000000;stroke-width:0.6;"
                 x="336.390452"
                 xlink:href="#m8e7a4f08b2"
                 y="239.758125"
                 id="use156" />
            </g>
          </g>
        </g>
        <g
           id="xtick_19">
          <g
             id="line2d_19">
            <g
               id="g164">
              <use
                 style="stroke:#000000;stroke-width:0.6;"
                 x="346.600819"
                 xlink:href="#m8e7a4f08b2"
                 y="239.758125"
                 id="use162" />
            </g>
          </g>
        </g>
        <g
           id="xtick_20">
          <g
             id="line2d_20">
            <g
               id="g170">
              <use
                 style="stroke:#000000;stroke-width:0.6;"
                 x="355.445442"
                 xlink:href="#m8e7a4f08b2"
                 y="239.758125"
                 id="use168" />
            </g>
          </g>
        </g>
        <g
           id="xtick_21">
          <g
             id="line2d_21">
            <g
               id="g176">
              <use
                 style="stroke:#000000;stroke-width:0.6;"
                 x="363.246952"
                 xlink:href="#m8e7a4f08b2"
                 y="239.758125"
                 id="use174" />
            </g>
          </g>
        </g>
        <g
           id="text_4">
          <!-- iteration -->
          <g
             transform="translate(196.255469 268.034687)scale(0.1 -0.1)"
             id="g207">
            <defs
               id="defs187">
              <path
                 d="M 9.421875 54.6875  L 18.40625 54.6875  L 18.40625 0  L 9.421875 0  z M 9.421875 75.984375  L 18.40625 75.984375  L 18.40625 64.59375  L 9.421875 64.59375  z "
                 id="DejaVuSans-105" />
              <path
                 d="M 18.3125 70.21875  L 18.3125 54.6875  L 36.8125 54.6875  L 36.8125 47.703125  L 18.3125 47.703125  L 18.3125 18.015625  Q 18.3125 11.328125 20.140625 9.421875  Q 21.96875 7.515625 27.59375 7.515625  L 36.8125 7.515625  L 36.8125 0  L 27.59375 0  Q 17.1875 0 13.234375 3.875  Q 9.28125 7.765625 9.28125 18.015625  L 9.28125 47.703125  L 2.6875 47.703125  L 2.6875 54.6875  L 9.28125 54.6875  L 9.28125 70.21875  z "
                 id="DejaVuSans-116" />
              <path
                 d="M 56.203125 29.59375  L 56.203125 25.203125  L 14.890625 25.203125  Q 15.484375 15.921875 20.484375 11.0625  Q 25.484375 6.203125 34.421875 6.203125  Q 39.59375 6.203125 44.453125 7.46875  Q 49.3125 8.734375 54.109375 11.28125  L 54.109375 2.78125  Q 49.265625 0.734375 44.1875 -0.34375  Q 39.109375 -1.421875 33.890625 -1.421875  Q 20.796875 -1.421875 13.15625 6.1875  Q 5.515625 13.8125 5.515625 26.8125  Q 5.515625 40.234375 12.765625 48.109375  Q 20.015625 56 32.328125 56  Q 43.359375 56 49.78125 48.890625  Q 56.203125 41.796875 56.203125 29.59375  z M 47.21875 32.234375  Q 47.125 39.59375 43.09375 43.984375  Q 39.0625 48.390625 32.421875 48.390625  Q 24.90625 48.390625 20.390625 44.140625  Q 15.875 39.890625 15.1875 32.171875  z "
                 id="DejaVuSans-101" />
              <path
                 d="M 41.109375 46.296875  Q 39.59375 47.171875 37.8125 47.578125  Q 36.03125 48 33.890625 48  Q 26.265625 48 22.1875 43.046875  Q 18.109375 38.09375 18.109375 28.8125  L 18.109375 0  L 9.078125 0  L 9.078125 54.6875  L 18.109375 54.6875  L 18.109375 46.1875  Q 20.953125 51.171875 25.484375 53.578125  Q 30.03125 56 36.53125 56  Q 37.453125 56 38.578125 55.875  Q 39.703125 55.765625 41.0625 55.515625  z "
                 id="DejaVuSans-114" />
              <path
                 d="M 34.28125 27.484375  Q 23.390625 27.484375 19.1875 25  Q 14.984375 22.515625 14.984375 16.5  Q 14.984375 11.71875 18.140625 8.90625  Q 21.296875 6.109375 26.703125 6.109375  Q 34.1875 6.109375 38.703125 11.40625  Q 43.21875 16.703125 43.21875 25.484375  L 43.21875 27.484375  z M 52.203125 31.203125  L 52.203125 0  L 43.21875 0  L 43.21875 8.296875  Q 40.140625 3.328125 35.546875 0.953125  Q 30.953125 -1.421875 24.3125 -1.421875  Q 15.921875 -1.421875 10.953125 3.296875  Q 6 8.015625 6 15.921875  Q 6 25.140625 12.171875 29.828125  Q 18.359375 34.515625 30.609375 34.515625  L 43.21875 34.515625  L 43.21875 35.40625  Q 43.21875 41.609375 39.140625 45  Q 35.0625 48.390625 27.6875 48.390625  Q 23 48.390625 18.546875 47.265625  Q 14.109375 46.140625 10.015625 43.890625  L 10.015625 52.203125  Q 14.9375 54.109375 19.578125 55.046875  Q 24.21875 56 28.609375 56  Q 40.484375 56 46.34375 49.84375  Q 52.203125 43.703125 52.203125 31.203125  z "
                 id="DejaVuSans-97" />
              <path
                 d="M 30.609375 48.390625  Q 23.390625 48.390625 19.1875 42.75  Q 14.984375 37.109375 14.984375 27.296875  Q 14.984375 17.484375 19.15625 11.84375  Q 23.34375 6.203125 30.609375 6.203125  Q 37.796875 6.203125 41.984375 11.859375  Q 46.1875 17.53125 46.1875 27.296875  Q 46.1875 37.015625 41.984375 42.703125  Q 37.796875 48.390625 30.609375 48.390625  z M 30.609375 56  Q 42.328125 56 49.015625 48.375  Q 55.71875 40.765625 55.71875 27.296875  Q 55.71875 13.875 49.015625 6.21875  Q 42.328125 -1.421875 30.609375 -1.421875  Q 18.84375 -1.421875 12.171875 6.21875  Q 5.515625 13.875 5.515625 27.296875  Q 5.515625 40.765625 12.171875 48.375  Q 18.84375 56 30.609375 56  z "
                 id="DejaVuSans-111" />
              <path
                 d="M 54.890625 33.015625  L 54.890625 0  L 45.90625 0  L 45.90625 32.71875  Q 45.90625 40.484375 42.875 44.328125  Q 39.84375 48.1875 33.796875 48.1875  Q 26.515625 48.1875 22.3125 43.546875  Q 18.109375 38.921875 18.109375 30.90625  L 18.109375 0  L 9.078125 0  L 9.078125 54.6875  L 18.109375 54.6875  L 18.109375 46.1875  Q 21.34375 51.125 25.703125 53.5625  Q 30.078125 56 35.796875 56  Q 45.21875 56 50.046875 50.171875  Q 54.890625 44.34375 54.890625 33.015625  z "
                 id="DejaVuSans-110" />
            </defs>
            <use
               xlink:href="#DejaVuSans-105"
               id="use189" />
            <use
               x="27.783203"
               xlink:href="#DejaVuSans-116"
               id="use191" />
            <use
               x="66.992188"
               xlink:href="#DejaVuSans-101"
               id="use193" />
            <use
               x="128.515625"
               xlink:href="#DejaVuSans-114"
               id="use195" />
            <use
               x="169.628906"
               xlink:href="#DejaVuSans-97"
               id="use197" />
            <use
               x="230.908203"
               xlink:href="#DejaVuSans-116"
               id="use199" />
            <use
               x="270.117188"
               xlink:href="#DejaVuSans-105"
               id="use201" />
            <use
               x="297.900391"
               xlink:href="#DejaVuSans-111"
               id="use203" />
            <use
               x="359.082031"
               xlink:href="#DejaVuSans-110"
               id="use205" />
          </g>
        </g>
      </g>
      <g
         id="matplotlib.axis_2">
        <g
           id="ytick_1">
          <g
             id="line2d_22">
            <defs
               id="defs212">
              <path
                 d="M 0 0  L -3.5 0  "
                 id="m65b51428c1"
                 style="stroke:#000000;stroke-width:0.8;" />
            </defs>
            <g
               id="g216">
              <use
                 style="stroke:#000000;stroke-width:0.8;"
                 x="49.978125"
                 xlink:href="#m65b51428c1"
                 y="108.143169"
                 id="use214" />
            </g>
          </g>
          <g
             id="text_5">
            <!-- $\mathdefault{10^{10}}$ -->
            <g
               transform="translate(20.878125 111.942388)scale(0.1 -0.1)"
               id="g227">
              <use
                 transform="translate(0 0.765625)"
                 xlink:href="#DejaVuSans-49"
                 id="use219" />
              <use
                 transform="translate(63.623047 0.765625)"
                 xlink:href="#DejaVuSans-48"
                 id="use221" />
              <use
                 transform="translate(128.203125 39.046875)scale(0.7)"
                 xlink:href="#DejaVuSans-49"
                 id="use223" />
              <use
                 transform="translate(172.739258 39.046875)scale(0.7)"
                 xlink:href="#DejaVuSans-48"
                 id="use225" />
            </g>
          </g>
        </g>
        <g
           id="ytick_2">
          <g
             id="line2d_23">
            <defs
               id="defs232">
              <path
                 d="M 0 0  L -2 0  "
                 id="ma47a763431"
                 style="stroke:#000000;stroke-width:0.6;" />
            </defs>
            <g
               id="g236">
              <use
                 style="stroke:#000000;stroke-width:0.6;"
                 x="49.978125"
                 xlink:href="#ma47a763431"
                 y="215.476046"
                 id="use234" />
            </g>
          </g>
        </g>
        <g
           id="ytick_3">
          <g
             id="line2d_24">
            <g
               id="g242">
              <use
                 style="stroke:#000000;stroke-width:0.6;"
                 x="49.978125"
                 xlink:href="#ma47a763431"
                 y="188.435714"
                 id="use240" />
            </g>
          </g>
        </g>
        <g
           id="ytick_4">
          <g
             id="line2d_25">
            <g
               id="g248">
              <use
                 style="stroke:#000000;stroke-width:0.6;"
                 x="49.978125"
                 xlink:href="#ma47a763431"
                 y="169.250292"
                 id="use246" />
            </g>
          </g>
        </g>
        <g
           id="ytick_5">
          <g
             id="line2d_26">
            <g
               id="g254">
              <use
                 style="stroke:#000000;stroke-width:0.6;"
                 x="49.978125"
                 xlink:href="#ma47a763431"
                 y="154.368923"
                 id="use252" />
            </g>
          </g>
        </g>
        <g
           id="ytick_6">
          <g
             id="line2d_27">
            <g
               id="g260">
              <use
                 style="stroke:#000000;stroke-width:0.6;"
                 x="49.978125"
                 xlink:href="#ma47a763431"
                 y="142.20996"
                 id="use258" />
            </g>
          </g>
        </g>
        <g
           id="ytick_7">
          <g
             id="line2d_28">
            <g
               id="g266">
              <use
                 style="stroke:#000000;stroke-width:0.6;"
                 x="49.978125"
                 xlink:href="#ma47a763431"
                 y="131.929702"
                 id="use264" />
            </g>
          </g>
        </g>
        <g
           id="ytick_8">
          <g
             id="line2d_29">
            <g
               id="g272">
              <use
                 style="stroke:#000000;stroke-width:0.6;"
                 x="49.978125"
                 xlink:href="#ma47a763431"
                 y="123.024538"
                 id="use270" />
            </g>
          </g>
        </g>
        <g
           id="ytick_9">
          <g
             id="line2d_30">
            <g
               id="g278">
              <use
                 style="stroke:#000000;stroke-width:0.6;"
                 x="49.978125"
                 xlink:href="#ma47a763431"
                 y="115.169627"
                 id="use276" />
            </g>
          </g>
        </g>
        <g
           id="ytick_10">
          <g
             id="line2d_31">
            <g
               id="g284">
              <use
                 style="stroke:#000000;stroke-width:0.6;"
                 x="49.978125"
                 xlink:href="#ma47a763431"
                 y="61.917416"
                 id="use282" />
            </g>
          </g>
        </g>
        <g
           id="ytick_11">
          <g
             id="line2d_32">
            <g
               id="g290">
              <use
                 style="stroke:#000000;stroke-width:0.6;"
                 x="49.978125"
                 xlink:href="#ma47a763431"
                 y="34.877083"
                 id="use288" />
            </g>
          </g>
        </g>
        <g
           id="text_6">
          <!-- cost -->
          <g
             transform="translate(14.798438 141.411562)rotate(-90)scale(0.1 -0.1)"
             id="g306">
            <defs
               id="defs296">
              <path
                 d="M 48.78125 52.59375  L 48.78125 44.1875  Q 44.96875 46.296875 41.140625 47.34375  Q 37.3125 48.390625 33.40625 48.390625  Q 24.65625 48.390625 19.8125 42.84375  Q 14.984375 37.3125 14.984375 27.296875  Q 14.984375 17.28125 19.8125 11.734375  Q 24.65625 6.203125 33.40625 6.203125  Q 37.3125 6.203125 41.140625 7.25  Q 44.96875 8.296875 48.78125 10.40625  L 48.78125 2.09375  Q 45.015625 0.34375 40.984375 -0.53125  Q 36.96875 -1.421875 32.421875 -1.421875  Q 20.0625 -1.421875 12.78125 6.34375  Q 5.515625 14.109375 5.515625 27.296875  Q 5.515625 40.671875 12.859375 48.328125  Q 20.21875 56 33.015625 56  Q 37.15625 56 41.109375 55.140625  Q 45.0625 54.296875 48.78125 52.59375  z "
                 id="DejaVuSans-99" />
              <path
                 d="M 44.28125 53.078125  L 44.28125 44.578125  Q 40.484375 46.53125 36.375 47.5  Q 32.28125 48.484375 27.875 48.484375  Q 21.1875 48.484375 17.84375 46.4375  Q 14.5 44.390625 14.5 40.28125  Q 14.5 37.15625 16.890625 35.375  Q 19.28125 33.59375 26.515625 31.984375  L 29.59375 31.296875  Q 39.15625 29.25 43.1875 25.515625  Q 47.21875 21.78125 47.21875 15.09375  Q 47.21875 7.46875 41.1875 3.015625  Q 35.15625 -1.421875 24.609375 -1.421875  Q 20.21875 -1.421875 15.453125 -0.5625  Q 10.6875 0.296875 5.421875 2  L 5.421875 11.28125  Q 10.40625 8.6875 15.234375 7.390625  Q 20.0625 6.109375 24.8125 6.109375  Q 31.15625 6.109375 34.5625 8.28125  Q 37.984375 10.453125 37.984375 14.40625  Q 37.984375 18.0625 35.515625 20.015625  Q 33.0625 21.96875 24.703125 23.78125  L 21.578125 24.515625  Q 13.234375 26.265625 9.515625 29.90625  Q 5.8125 33.546875 5.8125 39.890625  Q 5.8125 47.609375 11.28125 51.796875  Q 16.75 56 26.8125 56  Q 31.78125 56 36.171875 55.265625  Q 40.578125 54.546875 44.28125 53.078125  z "
                 id="DejaVuSans-115" />
            </defs>
            <use
               xlink:href="#DejaVuSans-99"
               id="use298" />
            <use
               x="54.980469"
               xlink:href="#DejaVuSans-111"
               id="use300" />
            <use
               x="116.162109"
               xlink:href="#DejaVuSans-115"
               id="use302" />
            <use
               x="168.261719"
               xlink:href="#DejaVuSans-116"
               id="use304" />
          </g>
        </g>
      </g>
      <g
         id="line2d_33">
        <path
           clip-path="url(#p96b0498954)"
           d="M -1 34.954953  L 65.196307 34.956148  L 111.107796 37.016662  L 137.964296 38.964146  L 157.019286 40.930381  L 171.799484 42.95827  L 183.875785 45.062331  L 194.086153 47.246314  L 202.930775 49.509578  L 210.732285 51.849826  L 217.710973 54.264123  L 224.023965 56.749528  L 229.787275 59.303172  L 235.089006 61.922346  L 239.997642 64.604604  L 244.567473 67.347652  L 248.842265 70.149399  L 252.857814 73.007876  L 256.643774 75.921308  L 260.224986 78.888003  L 263.622463 81.90618  L 266.854142 84.972151  L 269.935454 88.081987  L 272.879774 91.230859  L 275.698764 94.408905  L 278.402661 97.608102  L 281.000495 100.821629  L 283.500274 104.042901  L 285.909131 107.265068  L 288.23345 110.481554  L 290.478963 113.685819  L 292.650838 116.871255  L 294.753754 120.031172  L 296.791954 123.159031  L 298.769303 126.248419  L 300.68933 129.293114  L 302.555264 132.286957  L 304.37007 135.224091  L 306.136475 138.098877  L 307.856995 140.905857  L 309.533952 143.64002  L 311.169499 146.296949  L 312.765631 148.872577  L 314.324204 151.362828  L 315.846944 153.764293  L 317.335462 156.074882  L 318.791263 158.293457  L 320.215754 160.419604  L 321.610254 162.453669  L 322.975998 164.396572  L 324.314151 166.249789  L 325.625803 168.015272  L 326.911985 169.695302  L 328.173666 171.292573  L 329.411764 172.809951  L 330.627142 174.250517  L 331.820621 175.617434  L 332.992975 176.914184  L 334.144939 178.144492  L 335.277211 179.312164  L 336.390452 180.421102  L 337.485291 181.475146  L 338.562328 182.47808  L 339.622131 183.433597  L 340.665243 184.345234  L 341.692183 185.216336  L 342.703444 186.050059  L 343.699497 186.849382  L 344.680793 187.617031  L 345.647763 188.355555  L 346.600819 189.067278  L 347.540357 189.754322  L 348.466753 190.418641  L 349.380372 191.061989  L 350.281559 191.68599  L 351.17065 192.290218  L 352.047965 192.878537  L 352.913811 193.451524  L 353.768484 194.009959  L 354.61227 194.553965  L 355.445442 195.086648  L 356.268263 195.604087  L 357.080988 196.110816  L 357.883862 196.608365  L 358.677121 197.09524  L 359.460991 197.571598  L 360.235693 198.038638  L 361.001439 198.497357  L 361.758433 198.945288  L 362.506874 199.386013  L 363.246952 199.817282  L 363.978852 200.240741  L 364.702753 200.656399  L 365.418827 201.064629  L 366.127244 201.466925  L 366.828163 201.861097  L 367.521743 202.250863  L 368.208135 202.631922  L 368.887488 203.00942  L 369.559943 203.377988  "
           style="fill:none;stroke:#1f77b4;stroke-linecap:square;stroke-width:1.5;"
           id="path310" />
      </g>
      <g
         id="line2d_34">
        <path
           clip-path="url(#p96b0498954)"
           d="M -1 39.201435  L 65.196307 39.204474  L 111.107796 46.350659  L 137.964296 53.638779  L 157.019286 61.066292  L 171.799484 68.62946  L 183.875785 68.629475  L 194.086153 68.629483  L 202.930775 68.629498  L 210.732285 68.629505  L 217.710973 68.629528  L 224.023965 68.629543  L 229.787275 68.629566  L 235.089006 68.629581  L 239.997642 68.629603  L 244.567473 68.629626  L 248.842265 68.629656  L 252.857814 68.629679  L 256.643774 68.629702  L 260.224986 68.629724  L 263.622463 68.629754  L 266.854142 68.629785  L 269.935454 68.629815  L 272.879774 68.629845  L 275.698764 68.629875  L 278.402661 68.629913  L 281.000495 68.629936  L 283.500274 68.629973  L 285.909131 68.630004  L 288.23345 68.630041  L 290.478963 68.630079  L 292.650838 68.630117  L 294.753754 68.630155  L 296.791954 68.630192  L 298.769303 68.630238  L 300.68933 68.630268  L 302.555264 68.630313  L 304.37007 68.630351  L 306.136475 68.630396  L 307.856995 68.630434  L 309.533952 68.630479  L 311.169499 68.630525  L 312.765631 68.63057  L 314.324204 68.630615  L 315.846944 68.630661  L 317.335462 68.630706  L 318.791263 68.630751  L 320.215754 68.630797  L 321.610254 68.630842  L 322.975998 68.630895  L 324.314151 68.630948  L 325.625803 68.630993  L 326.911985 68.631046  L 328.173666 68.631099  L 329.411764 68.631144  L 330.627142 68.631197  L 331.820621 68.631257  L 332.992975 68.631303  L 334.144939 68.631363  L 335.277211 68.631408  L 336.390452 68.631469  L 337.485291 68.631514  L 338.562328 68.631575  L 339.622131 68.631627  L 340.665243 68.631688  L 341.692183 68.631748  L 342.703444 68.631801  L 343.699497 68.631862  L 344.680793 68.631922  L 345.647763 68.631975  L 346.600819 68.632035  L 347.540357 68.632096  L 348.466753 68.632156  L 349.380372 68.632216  L 350.281559 68.632277  L 351.17065 68.632345  L 352.047965 68.632405  L 352.913811 68.632466  L 353.768484 68.632526  L 354.61227 68.632587  L 355.445442 68.632655  L 356.268263 68.632722  L 357.080988 68.63279  L 357.883862 68.632851  L 358.677121 68.632919  L 359.460991 68.632979  L 360.235693 68.633047  L 361.001439 68.633115  L 361.758433 68.633183  L 362.506874 68.633244  L 363.246952 68.633312  L 363.978852 68.633387  L 364.702753 68.633455  L 365.418827 68.633523  L 366.127244 68.633599  L 366.828163 68.633667  L 367.521743 68.633735  L 368.208135 68.633803  L 368.887488 68.633878  L 369.559943 68.633946  "
           style="fill:none;stroke:#ff7f0e;stroke-linecap:square;stroke-width:1.5;"
           id="path313" />
      </g>
      <g
         id="line2d_35">
        <path
           clip-path="url(#p96b0498954)"
           d="M -1 61.002516  L 65.196307 61.015022  L 111.107796 96.897438  L 137.964296 139.466914  L 157.019286 174.092183  L 171.799484 172.274282  L 183.875785 150.419358  L 194.086153 134.435542  L 202.930775 129.369262  L 210.732285 133.409104  L 217.710973 144.323193  L 224.023965 159.992784  L 229.787275 177.718235  L 235.089006 193.905735  L 239.997642 204.579557  L 244.567473 207.553315  L 248.842265 204.48942  L 252.857814 199.347435  L 256.643774 195.374741  L 260.224986 193.548115  L 263.622463 194.413367  L 266.854142 197.400305  L 269.935454 201.776733  L 272.879774 206.571991  L 275.698764 210.722288  L 278.402661 213.388638  L 281.000495 214.308487  L 283.500274 213.86447  L 285.909131 212.867813  L 288.23345 212.138254  L 290.478963 212.155648  L 292.650838 213.104126  L 294.753754 214.84035  L 296.791954 217.031532  L 298.769303 219.204506  L 300.68933 220.99292  L 302.555264 222.188611  L 304.37007 222.830924  L 306.136475 223.073505  L 307.856995 223.143988  L 309.533952 223.262823  L 311.169499 223.562052  L 312.765631 224.061302  L 314.324204 224.692657  L 315.846944 225.319126  L 317.335462 225.807573  L 318.791263 226.08151  L 320.215754 226.153479  L 321.610254 226.113177  L 322.975998 226.087925  L 324.314151 226.17614  L 325.625803 226.412448  L 326.911985 226.767767  L 328.173666 227.159867  L 329.411764 227.509733  L 330.627142 227.776897  L 331.820621 227.954441  L 332.992975 228.051114  L 334.144939 228.101594  L 335.277211 228.140876  L 336.390452 228.19315  L 337.485291 228.272673  L 338.562328 228.37796  L 339.622131 228.493876  L 340.665243 228.602782  L 341.692183 228.690319  L 342.703444 228.754399  L 343.699497 228.799676  L 344.680793 228.836843  L 345.647763 228.881649  L 346.600819 228.943907  L 347.540357 229.018004  L 348.466753 229.087006  L 349.380372 229.149609  L 350.281559 229.204876  L 351.17065 229.253876  L 352.047965 229.294909  L 352.913811 229.325098  L 353.768484 229.353829  L 354.61227 229.382625  L 355.445442 229.416162  L 356.268263 229.445011  L 357.080988 229.475083  L 357.883862 229.501714  L 358.677121 229.529989  L 359.460991 229.554644  L 360.235693 229.577567  L 361.001439 229.604392  L 361.758433 229.634309  L 362.506874 229.652889  L 363.246952 229.676153  L 363.978852 229.700207  L 364.702753 229.716433  L 365.418827 229.729523  L 366.127244 229.742531  L 366.828163 229.758745  L 367.521743 229.769369  L 368.208135 229.781184  L 368.887488 229.793393  L 369.559943 229.81017  "
           style="fill:none;stroke:#2ca02c;stroke-linecap:square;stroke-width:1.5;"
           id="path316" />
      </g>
      <g
         id="line2d_36">
        <path
           clip-path="url(#p96b0498954)"
           d="M -1 33.025473  L 65.196307 33.02583  L 111.107796 33.873954  L 137.964296 34.738723  L 157.019286 35.616472  L 171.799484 36.505052  L 183.875785 37.40304  L 194.086153 38.309455  L 202.930775 39.223559  L 210.732285 40.144788  L 217.710973 41.072722  L 224.023965 42.007006  L 229.787275 42.94737  L 235.089006 43.893565  L 239.997642 44.845431  L 244.567473 45.802798  L 248.842265 46.76554  L 252.857814 47.733539  L 256.643774 48.70672  L 260.224986 49.684995  L 263.622463 50.668315  L 266.854142 51.656625  L 269.935454 52.64987  L 272.879774 53.648045  L 275.698764 54.651098  L 278.402661 55.659022  L 281.000495 56.671795  L 283.500274 57.689418  L 285.909131 58.71188  L 288.23345 59.739198  L 290.478963 60.771344  L 292.650838 61.80835  L 294.753754 62.850232  L 296.791954 63.896978  L 298.769303 64.948616  L 300.68933 66.00518  L 302.555264 67.066654  L 304.37007 68.133091  L 306.136475 69.204503  L 307.856995 70.280913  L 309.533952 71.362353  L 311.169499 72.448851  L 312.765631 73.540432  L 314.324204 74.637132  L 315.846944 75.738978  L 317.335462 76.84602  L 318.791263 77.958262  L 320.215754 79.075766  L 321.610254 80.198562  L 322.975998 81.326596  L 324.314151 82.459639  L 325.625803 83.597504  L 326.911985 84.740095  L 328.173666 85.887345  L 329.411764 87.039203  L 330.627142 88.195593  L 331.820621 89.356259  L 332.992975 90.520546  L 334.144939 91.687794  L 335.277211 92.857637  L 336.390452 94.029784  L 337.485291 95.203906  L 338.562328 96.379741  L 339.622131 97.557024  L 340.665243 98.735546  L 341.692183 99.915056  L 342.703444 101.095317  L 343.699497 102.276102  L 344.680793 103.457141  L 345.647763 104.638173  L 346.600819 105.818974  L 347.540357 106.99934  L 348.466753 108.179045  L 349.380372 109.357855  L 350.281559 110.535569  L 351.17065 111.711945  L 352.047965 112.886769  L 352.913811 114.059822  L 353.768484 115.230855  L 354.61227 116.399658  L 355.445442 117.566002  L 356.268263 118.729672  L 357.080988 119.890439  L 357.883862 121.04808  L 358.677121 122.202364  L 359.460991 123.353071  L 360.235693 124.500009  L 361.001439 125.642949  L 361.758433 126.781679  L 362.506874 127.915964  L 363.246952 129.04558  L 363.978852 130.170302  L 364.702753 131.289897  L 365.418827 132.404159  L 366.127244 133.51285  L 366.828163 134.615742  L 367.521743 135.712632  L 368.208135 136.803266  L 368.887488 137.887429  L 369.559943 138.964857  "
           style="fill:none;stroke:#d62728;stroke-linecap:square;stroke-width:1.5;"
           id="path319" />
      </g>
      <g
         id="line2d_37">
        <path
           clip-path="url(#p96b0498954)"
           d="M -1 61.002516  L 65.196307 61.015022  L 111.107796 93.18039  L 137.964296 127.606342  L 157.019286 158.571557  L 171.799484 177.022594  L 183.875785 178.902195  L 194.086153 171.884867  L 202.930775 164.297044  L 210.732285 159.485658  L 217.710973 158.366825  L 224.023965 160.663783  L 229.787275 165.687368  L 235.089006 172.613156  L 239.997642 180.556494  L 244.567473 188.53914  L 248.842265 195.84943  L 252.857814 201.95423  L 256.643774 206.517614  L 260.224986 209.551613  L 263.622463 211.235977  L 266.854142 211.904334  L 269.935454 211.971876  L 272.879774 211.770544  L 275.698764 211.563498  L 278.402661 211.556668  L 281.000495 211.807473  L 283.500274 212.332928  L 285.909131 213.097157  L 288.23345 214.034736  L 290.478963 215.076646  L 292.650838 216.148257  L 294.753754 217.185415  L 296.791954 218.14023  L 298.769303 218.984077  L 300.68933 219.707211  L 302.555264 220.317028  L 304.37007 220.833222  L 306.136475 221.281817  L 307.856995 221.688816  L 309.533952 222.072847  L 311.169499 222.446055  L 312.765631 222.819797  L 314.324204 223.170592  L 315.846944 223.528232  L 317.335462 223.880706  L 318.791263 224.214206  L 320.215754 224.525106  L 321.610254 224.79944  L 322.975998 225.040907  L 324.314151 225.252974  L 325.625803 225.440804  L 326.911985 225.606272  L 328.173666 225.750603  L 329.411764 225.877546  L 330.627142 225.99418  L 331.820621 226.105968  L 332.992975 226.212278  L 334.144939 226.315625  L 335.277211 226.420575  L 336.390452 226.527166  L 337.485291 226.634504  L 338.562328 226.740528  L 339.622131 226.845279  L 340.665243 226.946053  L 341.692183 227.042218  L 342.703444 227.131084  L 343.699497 227.213565  L 344.680793 227.287378  L 345.647763 227.353653  L 346.600819 227.416731  L 347.540357 227.477493  L 348.466753 227.536874  L 349.380372 227.592535  L 350.281559 227.641762  L 351.17065 227.691903  L 352.047965 227.740373  L 352.913811 227.791491  L 353.768484 227.842509  L 354.61227 227.892241  L 355.445442 227.93852  L 356.268263 227.983911  L 357.080988 228.030991  L 357.883862 228.07629  L 358.677121 228.115186  L 359.460991 228.152019  L 360.235693 228.188496  L 361.001439 228.224926  L 361.758433 228.259142  L 362.506874 228.292243  L 363.246952 228.323523  L 363.978852 228.355408  L 364.702753 228.384869  L 365.418827 228.410731  L 366.127244 228.4375  L 366.828163 228.465602  L 367.521743 228.492968  L 368.208135 228.518628  L 368.887488 228.544927  L 369.559943 228.5707  "
           style="fill:none;stroke:#9467bd;stroke-linecap:square;stroke-width:1.5;"
           id="path322" />
      </g>
      <g
         id="line2d_38">
        <path
           clip-path="url(#p96b0498954)"
           d="M -1 39.201435  L 65.196307 39.204474  L 111.107796 46.156645  L 137.964296 53.054979  L 157.019286 59.896022  L 171.799484 66.676122  L 183.875785 73.391533  L 194.086153 80.038058  L 202.930775 86.601391  L 210.732285 93.037837  L 217.710973 99.305773  L 224.023965 105.373265  L 229.787275 111.213037  L 235.089006 116.804783  L 239.997642 122.134473  L 244.567473 127.192688  L 248.842265 131.973764  L 252.857814 136.475515  L 256.643774 140.699664  L 260.224986 144.651609  L 263.622463 148.340007  L 266.854142 151.775919  L 269.935454 154.971699  L 272.879774 157.939817  L 275.698764 160.694042  L 278.402661 163.248874  L 281.000495 165.619165  L 283.500274 167.819518  L 285.909131 169.863954  L 288.23345 171.765929  L 290.478963 173.538082  L 292.650838 175.192181  L 294.753754 176.73908  L 296.791954 178.188654  L 298.769303 179.549928  L 300.68933 180.831121  L 302.555264 182.039577  L 304.37007 183.181871  L 306.136475 184.26387  L 307.856995 185.290863  L 309.533952 186.267533  L 311.169499 187.198109  L 312.765631 188.086438  L 314.324204 188.936024  L 315.846944 189.750032  L 317.335462 190.531298  L 318.791263 191.282313  L 320.215754 192.005248  L 321.610254 192.702027  L 322.975998 193.374336  L 324.314151 194.023708  L 325.625803 194.651555  L 326.911985 195.259184  L 328.173666 195.847751  L 329.411764 196.418315  L 330.627142 196.97186  L 331.820621 197.509222  L 332.992975 198.031205  L 334.144939 198.538564  L 335.277211 199.031986  L 336.390452 199.512077  L 337.485291 199.979422  L 338.562328 200.434565  L 339.622131 200.878034  L 340.665243 201.31032  L 341.692183 201.731851  L 342.703444 202.143069  L 343.699497 202.544342  L 344.680793 202.936103  L 345.647763 203.318655  L 346.600819 203.692317  L 347.540357 204.057395  L 348.466753 204.414191  L 349.380372 204.762961  L 350.281559 205.103963  L 351.17065 205.437434  L 352.047965 205.763438  L 352.913811 206.082279  L 353.768484 206.394397  L 354.61227 206.699757  L 355.445442 206.998786  L 356.268263 207.291476  L 357.080988 207.578205  L 357.883862 207.858939  L 358.677121 208.134038  L 359.460991 208.403467  L 360.235693 208.667583  L 361.001439 208.926311  L 361.758433 209.18005  L 362.506874 209.428685  L 363.246952 209.672584  L 363.978852 209.911662  L 364.702753 210.146296  L 365.418827 210.376342  L 366.127244 210.60216  L 366.828163 210.823639  L 367.521743 211.040944  L 368.208135 211.254195  L 368.887488 211.463569  L 369.559943 211.669103  "
           style="fill:none;stroke:#8c564b;stroke-linecap:square;stroke-width:1.5;"
           id="path325" />
      </g>
      <g
         id="line2d_39">
        <path
           clip-path="url(#p96b0498954)"
           d="M -1 32.201792  L 65.196307 32.201792  L 111.107796 124.648082  L 137.964296 171.11659  L 157.019286 188.310626  L 171.799484 200.091621  L 183.875785 209.697965  L 194.086153 216.852553  L 202.930775 221.794248  L 210.732285 224.468586  L 217.710973 225.451777  L 224.023965 226.579187  L 229.787275 227.418253  L 235.089006 227.904736  L 239.997642 228.238776  L 244.567473 228.484082  L 248.842265 228.663724  L 252.857814 228.826831  L 256.643774 228.933597  L 260.224986 229.047058  L 263.622463 229.12083  L 266.854142 229.176487  L 269.935454 229.22981  L 272.879774 229.275867  L 275.698764 229.313164  L 278.402661 229.343823  L 281.000495 229.372683  L 283.500274 229.407693  L 285.909131 229.438317  L 288.23345 229.458295  L 290.478963 229.491191  L 292.650838 229.520246  L 294.753754 229.534821  L 296.791954 229.553937  L 298.769303 229.571119  L 300.68933 229.584987  L 302.555264 229.598157  L 304.37007 229.611102  L 306.136475 229.626246  L 307.856995 229.639561  L 309.533952 229.648344  L 311.169499 229.665038  L 312.765631 229.671379  L 314.324204 229.676977  L 315.846944 229.684455  L 317.335462 229.692056  L 318.791263 229.699055  L 320.215754 229.704893  L 321.610254 229.710715  L 322.975998 229.718409  L 324.314151 229.725279  L 325.625803 229.730194  L 326.911985 229.735564  L 328.173666 229.738815  L 329.411764 229.742584  L 330.627142 229.746786  L 331.820621 229.751872  L 332.992975 229.758312  L 334.144939 229.763177  L 335.277211 229.76719  L 336.390452 229.770236  L 337.485291 229.773113  L 338.562328 229.776969  L 339.622131 229.779555  L 340.665243 229.782268  L 341.692183 229.785886  L 342.703444 229.788981  L 343.699497 229.793737  L 344.680793 229.796445  L 345.647763 229.799265  L 346.600819 229.79672  L 347.540357 229.802016  L 348.466753 229.80454  L 349.380372 229.809202  L 350.281559 229.814562  L 351.17065 229.817934  L 352.047965 229.822914  L 352.913811 229.825639  L 353.768484 229.827608  L 354.61227 229.829503  L 355.445442 229.831573  L 356.268263 229.833733  L 357.080988 229.836062  L 357.883862 229.838942  L 358.677121 229.840583  L 359.460991 229.842668  L 360.235693 229.843468  L 361.001439 229.845903  L 361.758433 229.848032  L 362.506874 229.85033  L 363.246952 229.847508  L 363.978852 229.852765  L 364.702753 229.859024  L 365.418827 229.860306  L 366.127244 229.863165  L 366.828163 229.866221  L 367.521743 229.868318  L 368.208135 229.870596  L 368.887488 229.872762  L 369.559943 229.874489  "
           style="fill:none;stroke:#e377c2;stroke-linecap:square;stroke-width:1.5;"
           id="path328" />
      </g>
      <g
         id="line2d_40">
        <path
           clip-path="url(#p96b0498954)"
           d="M -1 61.002516  L 65.196307 61.015022  L 111.107796 82.74017  L 137.964296 101.403154  L 157.019286 117.482869  L 171.799484 131.1372  L 183.875785 142.623765  L 194.086153 152.192781  L 202.930775 160.090216  L 210.732285 166.585163  L 217.710973 171.946414  L 224.023965 176.402769  L 229.787275 180.140983  L 235.089006 183.313926  L 239.997642 186.045595  L 244.567473 188.43239  L 248.842265 190.543837  L 252.857814 192.4391  L 256.643774 194.156498  L 260.224986 195.722371  L 263.622463 197.171883  L 266.854142 198.503359  L 269.935454 199.752994  L 272.879774 200.912141  L 275.698764 202.013457  L 278.402661 203.038677  L 281.000495 204.013719  L 283.500274 204.929961  L 285.909131 205.805462  L 288.23345 206.631802  L 290.478963 207.42392  L 292.650838 208.173421  L 294.753754 208.893534  L 296.791954 209.574861  L 298.769303 210.230372  L 300.68933 210.850231  L 302.555264 211.450356  L 304.37007 212.018533  L 306.136475 212.567288  L 307.856995 213.087837  L 309.533952 213.592421  L 311.169499 214.070567  L 312.765631 214.535714  L 314.324204 214.976806  L 315.846944 215.407062  L 317.335462 215.813565  L 318.791263 216.212204  L 320.215754 216.588918  L 321.610254 216.958883  L 322.975998 217.309033  L 324.314151 217.653244  L 325.625803 217.979327  L 326.911985 218.300075  L 328.173666 218.604205  L 329.411764 218.903626  L 330.627142 219.187754  L 331.820621 219.467673  L 332.992975 219.733534  L 334.144939 219.995526  L 335.277211 220.244636  L 336.390452 220.490276  L 337.485291 220.724135  L 338.562328 220.954715  L 339.622131 221.174197  L 340.665243 221.390734  L 341.692183 221.596967  L 342.703444 221.800963  L 343.699497 221.994835  L 344.680793 222.186718  L 345.647763 222.369542  L 346.600819 222.550647  L 347.540357 222.723375  L 348.466753 222.894496  L 349.380372 223.057894  L 350.281559 223.219714  L 351.17065 223.374349  L 352.047965 223.527581  L 352.913811 223.674153  L 353.768484 223.819384  L 354.61227 223.958378  L 355.445442 224.095477  L 356.268263 224.226765  L 357.080988 224.356786  L 357.883862 224.481428  L 358.677121 224.604791  L 359.460991 224.723141  L 360.235693 224.840179  L 361.001439 224.952478  L 361.758433 225.063464  L 362.506874 225.16994  L 363.246952 225.275083  L 363.978852 225.375966  L 364.702753 225.475554  L 365.418827 225.571135  L 366.127244 225.665431  L 366.828163 225.755966  L 367.521743 225.845023  L 368.208135 225.93065  L 368.887488 226.015002  L 369.559943 226.095887  "
           style="fill:none;stroke:#7f7f7f;stroke-linecap:square;stroke-width:1.5;"
           id="path331" />
      </g>
      <g
         id="line2d_41">
        <path
           clip-path="url(#p96b0498954)"
           d="M -1 34.823762  L 65.196307 34.8249  L 111.107796 37.499471  L 137.964296 40.227478  L 157.019286 43.011049  L 171.799484 45.852415  L 183.875785 48.753977  L 194.086153 51.718249  L 202.930775 54.747922  L 210.732285 57.845827  L 217.710973 61.015022  L 224.023965 64.258728  L 229.787275 67.580383  L 235.089006 70.98368  L 239.997642 74.472547  L 244.567473 78.051185  L 248.842265 81.723908  L 252.857814 85.492915  L 256.643774 89.360325  L 260.224986 93.323833  L 263.622463 97.378844  L 266.854142 101.52249  L 269.935454 105.751369  L 272.879774 110.060911  L 275.698764 114.445497  L 278.402661 118.897512  L 281.000495 123.406922  L 283.500274 127.961022  L 285.909131 132.54387  L 288.23345 137.135721  L 290.478963 141.712606  L 292.650838 146.245321  L 294.753754 150.696593  L 296.791954 155.025008  L 298.769303 159.188391  L 300.68933 163.145505  L 302.555264 166.86768  L 304.37007 170.329408  L 306.136475 173.530441  L 307.856995 176.494719  L 309.533952 179.264539  L 311.169499 181.906866  L 312.765631 184.463715  L 314.324204 186.950263  L 315.846944 189.37276  L 317.335462 191.732067  L 318.791263 194.020788  L 320.215754 196.22557  L 321.610254 198.34011  L 322.975998 200.359484  L 324.314151 202.27988  L 325.625803 204.093276  L 326.911985 205.796875  L 328.173666 207.393249  L 329.411764 208.891438  L 330.627142 210.302428  L 331.820621 211.631997  L 332.992975 212.882328  L 334.144939 214.05872  L 335.277211 215.160903  L 336.390452 216.194948  L 337.485291 217.159654  L 338.562328 218.064872  L 339.622131 218.916447  L 340.665243 219.713715  L 341.692183 220.458327  L 342.703444 221.161312  L 343.699497 221.819704  L 344.680793 222.437195  L 345.647763 223.014698  L 346.600819 223.557682  L 347.540357 224.065511  L 348.466753 224.54279  L 349.380372 224.987851  L 350.281559 225.4062  L 351.17065 225.798404  L 352.047965 226.165492  L 352.913811 226.50073  L 353.768484 226.813718  L 354.61227 227.104276  L 355.445442 227.366996  L 356.268263 227.60478  L 357.080988 227.824833  L 357.883862 228.023428  L 358.677121 228.201357  L 359.460991 228.368415  L 360.235693 228.516968  L 361.001439 228.655018  L 361.758433 228.78066  L 362.506874 228.895359  L 363.246952 228.998811  L 363.978852 229.09455  L 364.702753 229.178815  L 365.418827 229.25714  L 366.127244 229.328077  L 366.828163 229.393972  L 367.521743 229.453142  L 368.208135 229.508319  L 368.887488 229.558824  L 369.559943 229.60608  "
           style="fill:none;stroke:#bcbd22;stroke-linecap:square;stroke-width:1.5;"
           id="path334" />
      </g>
      <g
         id="line2d_42">
        <path
           clip-path="url(#p96b0498954)"
           d="M -1 89.100925  L 65.196307 89.106678  L 111.107796 103.42366  L 137.964296 118.683014  L 157.019286 134.586502  L 171.799484 150.530652  L 183.875785 165.542792  L 194.086153 178.573151  L 202.930775 189.39227  L 210.732285 198.598882  L 217.710973 206.441942  L 224.023965 212.888441  L 229.787275 217.928877  L 235.089006 221.713126  L 239.997642 222.520992  L 244.567473 223.26311  L 248.842265 223.441015  L 252.857814 223.609457  L 256.643774 223.778549  L 260.224986 223.938416  L 263.622463 224.099023  L 266.854142 224.25195  L 269.935454 224.405648  L 272.879774 224.552032  L 275.698764 224.698999  L 278.402661 224.838627  L 281.000495 224.978942  L 283.500274 225.112402  L 285.909131 225.246564  L 288.23345 225.37414  L 290.478963 225.502292  L 292.650838 225.623628  L 294.753754 225.746057  L 296.791954 225.861943  L 298.769303 225.97888  L 300.68933 226.089517  L 302.555264 226.201159  L 304.37007 226.306808  L 306.136475 226.412005  L 307.856995 226.509915  L 309.533952 226.609735  L 311.169499 226.702804  L 312.765631 226.797172  L 314.324204 226.885074  L 315.846944 226.974472  L 317.335462 227.058058  L 318.791263 227.142985  L 320.215754 227.22237  L 321.610254 227.302685  L 322.975998 227.377577  L 324.314151 227.453227  L 325.625803 227.5241  L 326.911985 227.594285  L 328.173666 227.661266  L 329.411764 227.727395  L 330.627142 227.789432  L 331.820621 227.849867  L 332.992975 227.9065  L 334.144939 227.963294  L 335.277211 228.016541  L 336.390452 228.070046  L 337.485291 228.1202  L 338.562328 228.170263  L 339.622131 228.217356  L 340.665243 228.264395  L 341.692183 228.30873  L 342.703444 228.352825  L 343.699497 228.393514  L 344.680793 228.434649  L 345.647763 228.472795  L 346.600819 228.511114  L 347.540357 228.546806  L 348.466753 228.582533  L 349.380372 228.615239  L 350.281559 228.648273  L 351.17065 228.678456  L 352.047965 228.708981  L 352.913811 228.736287  L 353.768484 228.764312  L 354.61227 228.789691  L 355.445442 228.815903  L 356.268263 228.839659  L 357.080988 228.86407  L 357.883862 228.886298  L 358.677121 228.909187  L 359.460991 228.929921  L 360.235693 228.951199  L 361.001439 228.970515  L 361.758433 228.990526  L 362.506874 229.00853  L 363.246952 229.027276  L 363.978852 229.04337  L 364.702753 229.060912  L 365.418827 229.076098  L 366.127244 229.092623  L 366.828163 229.106974  L 367.521743 229.122616  L 368.208135 229.136176  L 368.887488 229.151018  L 369.559943 229.16383  "
           style="fill:none;stroke:#17becf;stroke-dasharray:5.55,2.4;stroke-dashoffset:0;stroke-width:1.5;"
           id="path337" />
      </g>
      <g
         id="line2d_43">
        <path
           clip-path="url(#p96b0498954)"
           d="M -1 186.972887  L 65.196307 186.987869  L 111.107796 201.444429  L 137.964296 208.822736  L 157.019286 216.458452  L 171.799484 219.960458  L 183.875785 222.078082  L 194.086153 223.492315  L 202.930775 224.379396  L 210.732285 225.005727  L 217.710973 226.286542  L 224.023965 226.770335  L 229.787275 227.376914  L 235.089006 227.653345  L 239.997642 227.791173  L 244.567473 227.945693  L 248.842265 228.097133  L 252.857814 228.208067  L 256.643774 228.288529  L 260.224986 228.378338  L 263.622463 228.434524  L 266.854142 228.465591  L 269.935454 228.49424  L 272.879774 228.539994  L 275.698764 228.567256  L 278.402661 228.6096  L 281.000495 228.634468  L 283.500274 228.67314  L 285.909131 228.700815  L 288.23345 228.718981  L 290.478963 228.731095  L 292.650838 228.737026  L 294.753754 228.746009  L 296.791954 228.751868  L 298.769303 228.76053  L 300.68933 228.766156  L 302.555264 228.774564  L 304.37007 228.780947  L 306.136475 228.786231  L 307.856995 228.78906  L 309.533952 228.799754  L 311.169499 228.80259  L 312.765631 228.81301  L 314.324204 228.815861  L 315.846944 228.826054  L 317.335462 228.828896  L 318.791263 228.838793  L 320.215754 228.84163  L 321.610254 228.851321  L 322.975998 228.856579  L 324.314151 228.859876  L 325.625803 228.861436  L 326.911985 228.862876  L 328.173666 228.863168  L 329.411764 228.865959  L 330.627142 228.8667  L 331.820621 228.867759  L 332.992975 228.869762  L 334.144939 228.870811  L 335.277211 228.872809  L 336.390452 228.873863  L 337.485291 228.875841  L 338.562328 228.87689  L 339.622131 228.878862  L 340.665243 228.879901  L 341.692183 228.881852  L 342.703444 228.882906  L 343.699497 228.884853  L 344.680793 228.885891  L 345.647763 228.887828  L 346.600819 228.888871  L 347.540357 228.890808  L 348.466753 228.891831  L 349.380372 228.893757  L 350.281559 228.89479  L 351.17065 228.896695  L 352.047965 228.897723  L 352.913811 228.899634  L 353.768484 228.900646  L 354.61227 228.902546  L 355.445442 228.903575  L 356.268263 228.905449  L 357.080988 228.906451  L 357.883862 228.908325  L 358.677121 228.909322  L 359.460991 228.911186  L 360.235693 228.912183  L 361.001439 228.914032  L 361.758433 228.915034  L 362.506874 228.916887  L 363.246952 228.917864  L 363.978852 228.919712  L 364.702753 228.921425  L 365.418827 228.921879  L 366.127244 228.922114  L 366.828163 228.922563  L 367.521743 228.922772  L 368.208135 228.923232  L 368.887488 228.923446  L 369.559943 228.923895  "
           style="fill:none;stroke:#1f77b4;stroke-dasharray:5.55,2.4;stroke-dashoffset:0;stroke-width:1.5;"
           id="path340" />
      </g>
      <g
         id="line2d_44">
        <path
           clip-path="url(#p96b0498954)"
           d="M -1 185.569473  L 65.196307 185.583848  L 111.107796 216.500919  L 137.964296 224.917493  L 157.019286 227.275869  L 171.799484 227.863634  L 183.875785 228.346323  L 194.086153 228.597408  L 202.930775 228.712328  L 210.732285 228.728378  "
           style="fill:none;stroke:#ff7f0e;stroke-dasharray:5.55,2.4;stroke-dashoffset:0;stroke-width:1.5;"
           id="path343" />
      </g>
      <g
         id="line2d_45">
        <path
           clip-path="url(#p96b0498954)"
           d="M -1 32.201761  L 65.196307 32.201761  L 111.107796 32.201761  L 137.964296 32.201761  L 157.019286 32.201761  L 171.799484 32.201761  L 183.875785 32.201761  L 194.086153 32.201761  L 202.930775 32.201761  L 210.732285 32.201761  L 217.710973 32.201761  L 224.023965 32.201761  L 229.787275 32.201761  L 235.089006 32.201761  L 239.997642 32.201761  L 244.567473 32.201761  L 248.842265 32.201761  L 252.857814 32.201761  L 256.643774 32.201761  L 260.224986 32.201761  L 263.622463 32.201761  L 266.854142 32.201761  L 269.935454 32.201761  L 272.879774 32.201761  L 275.698764 32.201761  L 278.402661 32.201761  L 281.000495 32.201761  L 283.500274 32.201761  L 285.909131 32.201761  L 288.23345 32.201761  L 290.478963 32.201761  L 292.650838 32.201761  L 294.753754 32.201761  L 296.791954 32.201761  L 298.769303 32.201761  L 300.68933 32.201761  L 302.555264 32.201761  L 304.37007 32.201761  L 306.136475 32.201761  L 307.856995 32.201761  L 309.533952 32.201761  L 311.169499 32.201761  L 312.765631 32.201761  L 314.324204 32.201761  L 315.846944 32.201761  L 317.335462 32.201761  L 318.791263 32.201761  L 320.215754 32.201761  L 321.610254 32.201761  L 322.975998 32.201761  L 324.314151 32.201761  L 325.625803 32.201761  L 326.911985 32.201761  L 328.173666 32.201761  L 329.411764 32.201761  L 330.627142 32.201761  L 331.820621 32.201761  L 332.992975 32.201761  L 334.144939 32.201761  L 335.277211 32.201761  L 336.390452 32.201761  L 337.485291 32.201761  L 338.562328 32.201761  L 339.622131 32.201761  L 340.665243 32.201761  L 341.692183 32.201761  L 342.703444 32.201761  L 343.699497 32.201761  L 344.680793 32.201761  L 345.647763 32.201761  L 346.600819 32.201761  L 347.540357 32.201761  L 348.466753 32.201761  L 349.380372 32.201761  L 350.281559 32.201761  L 351.17065 32.201761  L 352.047965 32.201761  L 352.913811 32.201761  L 353.768484 32.201761  L 354.61227 32.201761  L 355.445442 32.201761  L 356.268263 32.201761  L 357.080988 32.201761  L 357.883862 32.201761  L 358.677121 32.201761  L 359.460991 32.201761  L 360.235693 32.201761  L 361.001439 32.201761  L 361.758433 32.201761  L 362.506874 32.201761  L 363.246952 32.201761  L 363.978852 32.201761  L 364.702753 32.201761  L 365.418827 32.201761  L 366.127244 32.201761  L 366.828163 32.201761  L 367.521743 32.201761  L 368.208135 32.201761  L 368.887488 32.201761  L 369.559943 32.201761  "
           style="fill:none;stroke:#2ca02c;stroke-dasharray:5.55,2.4;stroke-dashoffset:0;stroke-width:1.5;"
           id="path346" />
      </g>
      <g
         id="patch_3">
        <path
           d="M 49.978125 239.758125  L 49.978125 22.318125  "
           style="fill:none;stroke:#000000;stroke-linecap:square;stroke-linejoin:miter;stroke-width:0.8;"
           id="path349" />
      </g>
      <g
         id="patch_4">
        <path
           d="M 384.778125 239.758125  L 384.778125 22.318125  "
           style="fill:none;stroke:#000000;stroke-linecap:square;stroke-linejoin:miter;stroke-width:0.8;"
           id="path352" />
      </g>
      <g
         id="patch_5">
        <path
           d="M 49.978125 239.758125  L 384.778125 239.758125  "
           style="fill:none;stroke:#000000;stroke-linecap:square;stroke-linejoin:miter;stroke-width:0.8;"
           id="path355" />
      </g>
      <g
         id="patch_6">
        <path
           d="M 49.978125 22.318125  L 384.778125 22.318125  "
           style="fill:none;stroke:#000000;stroke-linecap:square;stroke-linejoin:miter;stroke-width:0.8;"
           id="path358" />
      </g>
      <g
         id="text_7">
        <!-- ICM - Prostate -->
        <g
           transform="translate(175.54875 16.318125)scale(0.12 -0.12)"
           id="g397">
          <defs
             id="defs367">
            <path
               d="M 9.8125 72.90625  L 19.671875 72.90625  L 19.671875 0  L 9.8125 0  z "
               id="DejaVuSans-73" />
            <path
               d="M 64.40625 67.28125  L 64.40625 56.890625  Q 59.421875 61.53125 53.78125 63.8125  Q 48.140625 66.109375 41.796875 66.109375  Q 29.296875 66.109375 22.65625 58.46875  Q 16.015625 50.828125 16.015625 36.375  Q 16.015625 21.96875 22.65625 14.328125  Q 29.296875 6.6875 41.796875 6.6875  Q 48.140625 6.6875 53.78125 8.984375  Q 59.421875 11.28125 64.40625 15.921875  L 64.40625 5.609375  Q 59.234375 2.09375 53.4375 0.328125  Q 47.65625 -1.421875 41.21875 -1.421875  Q 24.65625 -1.421875 15.125 8.703125  Q 5.609375 18.84375 5.609375 36.375  Q 5.609375 53.953125 15.125 64.078125  Q 24.65625 74.21875 41.21875 74.21875  Q 47.75 74.21875 53.53125 72.484375  Q 59.328125 70.75 64.40625 67.28125  z "
               id="DejaVuSans-67" />
            <path
               d="M 9.8125 72.90625  L 24.515625 72.90625  L 43.109375 23.296875  L 61.8125 72.90625  L 76.515625 72.90625  L 76.515625 0  L 66.890625 0  L 66.890625 64.015625  L 48.09375 14.015625  L 38.1875 14.015625  L 19.390625 64.015625  L 19.390625 0  L 9.8125 0  z "
               id="DejaVuSans-77" />
            <path
               id="DejaVuSans-32" />
            <path
               d="M 4.890625 31.390625  L 31.203125 31.390625  L 31.203125 23.390625  L 4.890625 23.390625  z "
               id="DejaVuSans-45" />
            <path
               d="M 19.671875 64.796875  L 19.671875 37.40625  L 32.078125 37.40625  Q 38.96875 37.40625 42.71875 40.96875  Q 46.484375 44.53125 46.484375 51.125  Q 46.484375 57.671875 42.71875 61.234375  Q 38.96875 64.796875 32.078125 64.796875  z M 9.8125 72.90625  L 32.078125 72.90625  Q 44.34375 72.90625 50.609375 67.359375  Q 56.890625 61.8125 56.890625 51.125  Q 56.890625 40.328125 50.609375 34.8125  Q 44.34375 29.296875 32.078125 29.296875  L 19.671875 29.296875  L 19.671875 0  L 9.8125 0  z "
               id="DejaVuSans-80" />
          </defs>
          <use
             xlink:href="#DejaVuSans-73"
             id="use369" />
          <use
             x="29.492188"
             xlink:href="#DejaVuSans-67"
             id="use371" />
          <use
             x="99.316406"
             xlink:href="#DejaVuSans-77"
             id="use373" />
          <use
             x="185.595703"
             xlink:href="#DejaVuSans-32"
             id="use375" />
          <use
             x="217.382812"
             xlink:href="#DejaVuSans-45"
             id="use377" />
          <use
             x="253.466797"
             xlink:href="#DejaVuSans-32"
             id="use379" />
          <use
             x="285.253906"
             xlink:href="#DejaVuSans-80"
             id="use381" />
          <use
             x="343.806641"
             xlink:href="#DejaVuSans-114"
             id="use383" />
          <use
             x="382.669922"
             xlink:href="#DejaVuSans-111"
             id="use385" />
          <use
             x="443.851562"
             xlink:href="#DejaVuSans-115"
             id="use387" />
          <use
             x="495.951172"
             xlink:href="#DejaVuSans-116"
             id="use389" />
          <use
             x="535.160156"
             xlink:href="#DejaVuSans-97"
             id="use391" />
          <use
             x="596.439453"
             xlink:href="#DejaVuSans-116"
             id="use393" />
          <use
             x="635.648438"
             xlink:href="#DejaVuSans-101"
             id="use395" />
        </g>
      </g>
      <g
         id="legend_1">
        <g
           id="patch_7">
          <path
             d="M 395.126125 221.13375  L 483.65425 221.13375  Q 485.65425 221.13375 485.65425 219.13375  L 485.65425 29.318125  Q 485.65425 27.318125 483.65425 27.318125  L 395.126125 27.318125  Q 393.126125 27.318125 393.126125 29.318125  L 393.126125 219.13375  Q 393.126125 221.13375 395.126125 221.13375  z "
             style="fill:#ffffff;opacity:0.8;stroke:#cccccc;stroke-linejoin:miter;"
             id="path400" />
        </g>
        <g
           id="line2d_46">
          <path
             d="M 397.126125 35.416562  L 417.126125 35.416562  "
             style="fill:none;stroke:#1f77b4;stroke-linecap:square;stroke-width:1.5;"
             id="path403" />
        </g>
        <g
           id="line2d_47" />
        <g
           id="text_8">
          <!-- NAdam -->
          <g
             transform="translate(425.126125 38.916562)scale(0.1 -0.1)"
             id="g423">
            <defs
               id="defs411">
              <path
                 d="M 9.8125 72.90625  L 23.09375 72.90625  L 55.421875 11.921875  L 55.421875 72.90625  L 64.984375 72.90625  L 64.984375 0  L 51.703125 0  L 19.390625 60.984375  L 19.390625 0  L 9.8125 0  z "
                 id="DejaVuSans-78" />
              <path
                 d="M 34.1875 63.1875  L 20.796875 26.90625  L 47.609375 26.90625  z M 28.609375 72.90625  L 39.796875 72.90625  L 67.578125 0  L 57.328125 0  L 50.6875 18.703125  L 17.828125 18.703125  L 11.1875 0  L 0.78125 0  z "
                 id="DejaVuSans-65" />
              <path
                 d="M 45.40625 46.390625  L 45.40625 75.984375  L 54.390625 75.984375  L 54.390625 0  L 45.40625 0  L 45.40625 8.203125  Q 42.578125 3.328125 38.25 0.953125  Q 33.9375 -1.421875 27.875 -1.421875  Q 17.96875 -1.421875 11.734375 6.484375  Q 5.515625 14.40625 5.515625 27.296875  Q 5.515625 40.1875 11.734375 48.09375  Q 17.96875 56 27.875 56  Q 33.9375 56 38.25 53.625  Q 42.578125 51.265625 45.40625 46.390625  z M 14.796875 27.296875  Q 14.796875 17.390625 18.875 11.75  Q 22.953125 6.109375 30.078125 6.109375  Q 37.203125 6.109375 41.296875 11.75  Q 45.40625 17.390625 45.40625 27.296875  Q 45.40625 37.203125 41.296875 42.84375  Q 37.203125 48.484375 30.078125 48.484375  Q 22.953125 48.484375 18.875 42.84375  Q 14.796875 37.203125 14.796875 27.296875  z "
                 id="DejaVuSans-100" />
              <path
                 d="M 52 44.1875  Q 55.375 50.25 60.0625 53.125  Q 64.75 56 71.09375 56  Q 79.640625 56 84.28125 50.015625  Q 88.921875 44.046875 88.921875 33.015625  L 88.921875 0  L 79.890625 0  L 79.890625 32.71875  Q 79.890625 40.578125 77.09375 44.375  Q 74.3125 48.1875 68.609375 48.1875  Q 61.625 48.1875 57.5625 43.546875  Q 53.515625 38.921875 53.515625 30.90625  L 53.515625 0  L 44.484375 0  L 44.484375 32.71875  Q 44.484375 40.625 41.703125 44.40625  Q 38.921875 48.1875 33.109375 48.1875  Q 26.21875 48.1875 22.15625 43.53125  Q 18.109375 38.875 18.109375 30.90625  L 18.109375 0  L 9.078125 0  L 9.078125 54.6875  L 18.109375 54.6875  L 18.109375 46.1875  Q 21.1875 51.21875 25.484375 53.609375  Q 29.78125 56 35.6875 56  Q 41.65625 56 45.828125 52.96875  Q 50 49.953125 52 44.1875  z "
                 id="DejaVuSans-109" />
            </defs>
            <use
               xlink:href="#DejaVuSans-78"
               id="use413" />
            <use
               x="74.804688"
               xlink:href="#DejaVuSans-65"
               id="use415" />
            <use
               x="141.462891"
               xlink:href="#DejaVuSans-100"
               id="use417" />
            <use
               x="204.939453"
               xlink:href="#DejaVuSans-97"
               id="use419" />
            <use
               x="266.21875"
               xlink:href="#DejaVuSans-109"
               id="use421" />
          </g>
        </g>
        <g
           id="line2d_48">
          <path
             d="M 397.126125 50.094687  L 417.126125 50.094687  "
             style="fill:none;stroke:#ff7f0e;stroke-linecap:square;stroke-width:1.5;"
             id="path426" />
        </g>
        <g
           id="line2d_49" />
        <g
           id="text_9">
          <!-- RAdam -->
          <g
             transform="translate(425.126125 53.594687)scale(0.1 -0.1)"
             id="g443">
            <defs
               id="defs431">
              <path
                 d="M 44.390625 34.1875  Q 47.5625 33.109375 50.5625 29.59375  Q 53.5625 26.078125 56.59375 19.921875  L 66.609375 0  L 56 0  L 46.6875 18.703125  Q 43.0625 26.03125 39.671875 28.421875  Q 36.28125 30.8125 30.421875 30.8125  L 19.671875 30.8125  L 19.671875 0  L 9.8125 0  L 9.8125 72.90625  L 32.078125 72.90625  Q 44.578125 72.90625 50.734375 67.671875  Q 56.890625 62.453125 56.890625 51.90625  Q 56.890625 45.015625 53.6875 40.46875  Q 50.484375 35.9375 44.390625 34.1875  z M 19.671875 64.796875  L 19.671875 38.921875  L 32.078125 38.921875  Q 39.203125 38.921875 42.84375 42.21875  Q 46.484375 45.515625 46.484375 51.90625  Q 46.484375 58.296875 42.84375 61.546875  Q 39.203125 64.796875 32.078125 64.796875  z "
                 id="DejaVuSans-82" />
            </defs>
            <use
               xlink:href="#DejaVuSans-82"
               id="use433" />
            <use
               x="65.482422"
               xlink:href="#DejaVuSans-65"
               id="use435" />
            <use
               x="132.140625"
               xlink:href="#DejaVuSans-100"
               id="use437" />
            <use
               x="195.617188"
               xlink:href="#DejaVuSans-97"
               id="use439" />
            <use
               x="256.896484"
               xlink:href="#DejaVuSans-109"
               id="use441" />
          </g>
        </g>
        <g
           id="line2d_50">
          <path
             d="M 397.126125 64.772812  L 417.126125 64.772812  "
             style="fill:none;stroke:#2ca02c;stroke-linecap:square;stroke-width:1.5;"
             id="path446" />
        </g>
        <g
           id="line2d_51" />
        <g
           id="text_10">
          <!-- Adam -->
          <g
             transform="translate(425.126125 68.272812)scale(0.1 -0.1)"
             id="g458">
            <use
               xlink:href="#DejaVuSans-65"
               id="use450" />
            <use
               x="66.658203"
               xlink:href="#DejaVuSans-100"
               id="use452" />
            <use
               x="130.134766"
               xlink:href="#DejaVuSans-97"
               id="use454" />
            <use
               x="191.414062"
               xlink:href="#DejaVuSans-109"
               id="use456" />
          </g>
        </g>
        <g
           id="line2d_52">
          <path
             d="M 397.126125 79.450937  L 417.126125 79.450937  "
             style="fill:none;stroke:#d62728;stroke-linecap:square;stroke-width:1.5;"
             id="path461" />
        </g>
        <g
           id="line2d_53" />
        <g
           id="text_11">
          <!-- Adadelta -->
          <g
             transform="translate(425.126125 82.950937)scale(0.1 -0.1)"
             id="g484">
            <defs
               id="defs466">
              <path
                 d="M 9.421875 75.984375  L 18.40625 75.984375  L 18.40625 0  L 9.421875 0  z "
                 id="DejaVuSans-108" />
            </defs>
            <use
               xlink:href="#DejaVuSans-65"
               id="use468" />
            <use
               x="66.658203"
               xlink:href="#DejaVuSans-100"
               id="use470" />
            <use
               x="130.134766"
               xlink:href="#DejaVuSans-97"
               id="use472" />
            <use
               x="191.414062"
               xlink:href="#DejaVuSans-100"
               id="use474" />
            <use
               x="254.890625"
               xlink:href="#DejaVuSans-101"
               id="use476" />
            <use
               x="316.414062"
               xlink:href="#DejaVuSans-108"
               id="use478" />
            <use
               x="344.197266"
               xlink:href="#DejaVuSans-116"
               id="use480" />
            <use
               x="383.40625"
               xlink:href="#DejaVuSans-97"
               id="use482" />
          </g>
        </g>
        <g
           id="line2d_54">
          <path
             d="M 397.126125 94.129062  L 417.126125 94.129062  "
             style="fill:none;stroke:#9467bd;stroke-linecap:square;stroke-width:1.5;"
             id="path487" />
        </g>
        <g
           id="line2d_55" />
        <g
           id="text_12">
          <!-- Adamax -->
          <g
             transform="translate(425.126125 97.629062)scale(0.1 -0.1)"
             id="g506">
            <defs
               id="defs492">
              <path
                 d="M 54.890625 54.6875  L 35.109375 28.078125  L 55.90625 0  L 45.3125 0  L 29.390625 21.484375  L 13.484375 0  L 2.875 0  L 24.125 28.609375  L 4.6875 54.6875  L 15.28125 54.6875  L 29.78125 35.203125  L 44.28125 54.6875  z "
                 id="DejaVuSans-120" />
            </defs>
            <use
               xlink:href="#DejaVuSans-65"
               id="use494" />
            <use
               x="66.658203"
               xlink:href="#DejaVuSans-100"
               id="use496" />
            <use
               x="130.134766"
               xlink:href="#DejaVuSans-97"
               id="use498" />
            <use
               x="191.414062"
               xlink:href="#DejaVuSans-109"
               id="use500" />
            <use
               x="288.826172"
               xlink:href="#DejaVuSans-97"
               id="use502" />
            <use
               x="350.105469"
               xlink:href="#DejaVuSans-120"
               id="use504" />
          </g>
        </g>
        <g
           id="line2d_56">
          <path
             d="M 397.126125 108.807187  L 417.126125 108.807187  "
             style="fill:none;stroke:#8c564b;stroke-linecap:square;stroke-width:1.5;"
             id="path509" />
        </g>
        <g
           id="line2d_57" />
        <g
           id="text_13">
          <!-- SGD -->
          <g
             transform="translate(425.126125 112.307187)scale(0.1 -0.1)"
             id="g524">
            <defs
               id="defs516">
              <path
                 d="M 53.515625 70.515625  L 53.515625 60.890625  Q 47.90625 63.578125 42.921875 64.890625  Q 37.9375 66.21875 33.296875 66.21875  Q 25.25 66.21875 20.875 63.09375  Q 16.5 59.96875 16.5 54.203125  Q 16.5 49.359375 19.40625 46.890625  Q 22.3125 44.4375 30.421875 42.921875  L 36.375 41.703125  Q 47.40625 39.59375 52.65625 34.296875  Q 57.90625 29 57.90625 20.125  Q 57.90625 9.515625 50.796875 4.046875  Q 43.703125 -1.421875 29.984375 -1.421875  Q 24.8125 -1.421875 18.96875 -0.25  Q 13.140625 0.921875 6.890625 3.21875  L 6.890625 13.375  Q 12.890625 10.015625 18.65625 8.296875  Q 24.421875 6.59375 29.984375 6.59375  Q 38.421875 6.59375 43.015625 9.90625  Q 47.609375 13.234375 47.609375 19.390625  Q 47.609375 24.75 44.3125 27.78125  Q 41.015625 30.8125 33.5 32.328125  L 27.484375 33.5  Q 16.453125 35.6875 11.515625 40.375  Q 6.59375 45.0625 6.59375 53.421875  Q 6.59375 63.09375 13.40625 68.65625  Q 20.21875 74.21875 32.171875 74.21875  Q 37.3125 74.21875 42.625 73.28125  Q 47.953125 72.359375 53.515625 70.515625  z "
                 id="DejaVuSans-83" />
              <path
                 d="M 59.515625 10.40625  L 59.515625 29.984375  L 43.40625 29.984375  L 43.40625 38.09375  L 69.28125 38.09375  L 69.28125 6.78125  Q 63.578125 2.734375 56.6875 0.65625  Q 49.8125 -1.421875 42 -1.421875  Q 24.90625 -1.421875 15.25 8.5625  Q 5.609375 18.5625 5.609375 36.375  Q 5.609375 54.25 15.25 64.234375  Q 24.90625 74.21875 42 74.21875  Q 49.125 74.21875 55.546875 72.453125  Q 61.96875 70.703125 67.390625 67.28125  L 67.390625 56.78125  Q 61.921875 61.421875 55.765625 63.765625  Q 49.609375 66.109375 42.828125 66.109375  Q 29.4375 66.109375 22.71875 58.640625  Q 16.015625 51.171875 16.015625 36.375  Q 16.015625 21.625 22.71875 14.15625  Q 29.4375 6.6875 42.828125 6.6875  Q 48.046875 6.6875 52.140625 7.59375  Q 56.25 8.5 59.515625 10.40625  z "
                 id="DejaVuSans-71" />
              <path
                 d="M 19.671875 64.796875  L 19.671875 8.109375  L 31.59375 8.109375  Q 46.6875 8.109375 53.6875 14.9375  Q 60.6875 21.78125 60.6875 36.53125  Q 60.6875 51.171875 53.6875 57.984375  Q 46.6875 64.796875 31.59375 64.796875  z M 9.8125 72.90625  L 30.078125 72.90625  Q 51.265625 72.90625 61.171875 64.09375  Q 71.09375 55.28125 71.09375 36.53125  Q 71.09375 17.671875 61.125 8.828125  Q 51.171875 0 30.078125 0  L 9.8125 0  z "
                 id="DejaVuSans-68" />
            </defs>
            <use
               xlink:href="#DejaVuSans-83"
               id="use518" />
            <use
               x="63.476562"
               xlink:href="#DejaVuSans-71"
               id="use520" />
            <use
               x="140.966797"
               xlink:href="#DejaVuSans-68"
               id="use522" />
          </g>
        </g>
        <g
           id="line2d_58">
          <path
             d="M 397.126125 123.485312  L 417.126125 123.485312  "
             style="fill:none;stroke:#e377c2;stroke-linecap:square;stroke-width:1.5;"
             id="path527" />
        </g>
        <g
           id="line2d_59" />
        <g
           id="text_14">
          <!-- LBFGS -->
          <g
             transform="translate(425.126125 126.985312)scale(0.1 -0.1)"
             id="g546">
            <defs
               id="defs534">
              <path
                 d="M 9.8125 72.90625  L 19.671875 72.90625  L 19.671875 8.296875  L 55.171875 8.296875  L 55.171875 0  L 9.8125 0  z "
                 id="DejaVuSans-76" />
              <path
                 d="M 19.671875 34.8125  L 19.671875 8.109375  L 35.5 8.109375  Q 43.453125 8.109375 47.28125 11.40625  Q 51.125 14.703125 51.125 21.484375  Q 51.125 28.328125 47.28125 31.5625  Q 43.453125 34.8125 35.5 34.8125  z M 19.671875 64.796875  L 19.671875 42.828125  L 34.28125 42.828125  Q 41.5 42.828125 45.03125 45.53125  Q 48.578125 48.25 48.578125 53.8125  Q 48.578125 59.328125 45.03125 62.0625  Q 41.5 64.796875 34.28125 64.796875  z M 9.8125 72.90625  L 35.015625 72.90625  Q 46.296875 72.90625 52.390625 68.21875  Q 58.5 63.53125 58.5 54.890625  Q 58.5 48.1875 55.375 44.234375  Q 52.25 40.28125 46.1875 39.3125  Q 53.46875 37.75 57.5 32.78125  Q 61.53125 27.828125 61.53125 20.40625  Q 61.53125 10.640625 54.890625 5.3125  Q 48.25 0 35.984375 0  L 9.8125 0  z "
                 id="DejaVuSans-66" />
              <path
                 d="M 9.8125 72.90625  L 51.703125 72.90625  L 51.703125 64.59375  L 19.671875 64.59375  L 19.671875 43.109375  L 48.578125 43.109375  L 48.578125 34.8125  L 19.671875 34.8125  L 19.671875 0  L 9.8125 0  z "
                 id="DejaVuSans-70" />
            </defs>
            <use
               xlink:href="#DejaVuSans-76"
               id="use536" />
            <use
               x="55.712891"
               xlink:href="#DejaVuSans-66"
               id="use538" />
            <use
               x="124.316406"
               xlink:href="#DejaVuSans-70"
               id="use540" />
            <use
               x="181.835938"
               xlink:href="#DejaVuSans-71"
               id="use542" />
            <use
               x="259.326172"
               xlink:href="#DejaVuSans-83"
               id="use544" />
          </g>
        </g>
        <g
           id="line2d_60">
          <path
             d="M 397.126125 138.163437  L 417.126125 138.163437  "
             style="fill:none;stroke:#7f7f7f;stroke-linecap:square;stroke-width:1.5;"
             id="path549" />
        </g>
        <g
           id="line2d_61" />
        <g
           id="text_15">
          <!-- RMSprop -->
          <g
             transform="translate(425.126125 141.663437)scale(0.1 -0.1)"
             id="g570">
            <defs
               id="defs554">
              <path
                 d="M 18.109375 8.203125  L 18.109375 -20.796875  L 9.078125 -20.796875  L 9.078125 54.6875  L 18.109375 54.6875  L 18.109375 46.390625  Q 20.953125 51.265625 25.265625 53.625  Q 29.59375 56 35.59375 56  Q 45.5625 56 51.78125 48.09375  Q 58.015625 40.1875 58.015625 27.296875  Q 58.015625 14.40625 51.78125 6.484375  Q 45.5625 -1.421875 35.59375 -1.421875  Q 29.59375 -1.421875 25.265625 0.953125  Q 20.953125 3.328125 18.109375 8.203125  z M 48.6875 27.296875  Q 48.6875 37.203125 44.609375 42.84375  Q 40.53125 48.484375 33.40625 48.484375  Q 26.265625 48.484375 22.1875 42.84375  Q 18.109375 37.203125 18.109375 27.296875  Q 18.109375 17.390625 22.1875 11.75  Q 26.265625 6.109375 33.40625 6.109375  Q 40.53125 6.109375 44.609375 11.75  Q 48.6875 17.390625 48.6875 27.296875  z "
                 id="DejaVuSans-112" />
            </defs>
            <use
               xlink:href="#DejaVuSans-82"
               id="use556" />
            <use
               x="69.482422"
               xlink:href="#DejaVuSans-77"
               id="use558" />
            <use
               x="155.761719"
               xlink:href="#DejaVuSans-83"
               id="use560" />
            <use
               x="219.238281"
               xlink:href="#DejaVuSans-112"
               id="use562" />
            <use
               x="282.714844"
               xlink:href="#DejaVuSans-114"
               id="use564" />
            <use
               x="321.578125"
               xlink:href="#DejaVuSans-111"
               id="use566" />
            <use
               x="382.759766"
               xlink:href="#DejaVuSans-112"
               id="use568" />
          </g>
        </g>
        <g
           id="line2d_62">
          <path
             d="M 397.126125 152.841562  L 417.126125 152.841562  "
             style="fill:none;stroke:#bcbd22;stroke-linecap:square;stroke-width:1.5;"
             id="path573" />
        </g>
        <g
           id="line2d_63" />
        <g
           id="text_16">
          <!-- Rprop -->
          <g
             transform="translate(425.126125 156.341562)scale(0.1 -0.1)"
             id="g587">
            <use
               xlink:href="#DejaVuSans-82"
               id="use577" />
            <use
               x="69.482422"
               xlink:href="#DejaVuSans-112"
               id="use579" />
            <use
               x="132.958984"
               xlink:href="#DejaVuSans-114"
               id="use581" />
            <use
               x="171.822266"
               xlink:href="#DejaVuSans-111"
               id="use583" />
            <use
               x="233.003906"
               xlink:href="#DejaVuSans-112"
               id="use585" />
          </g>
        </g>
        <g
           id="line2d_64">
          <path
             d="M 397.126125 167.519687  L 417.126125 167.519687  "
             style="fill:none;stroke:#17becf;stroke-dasharray:5.55,2.4;stroke-dashoffset:0;stroke-width:1.5;"
             id="path590" />
        </g>
        <g
           id="line2d_65" />
        <g
           id="text_17">
          <!-- BFGS -->
          <g
             transform="translate(425.126125 171.019687)scale(0.1 -0.1)"
             id="g602">
            <use
               xlink:href="#DejaVuSans-66"
               id="use594" />
            <use
               x="68.603516"
               xlink:href="#DejaVuSans-70"
               id="use596" />
            <use
               x="126.123047"
               xlink:href="#DejaVuSans-71"
               id="use598" />
            <use
               x="203.613281"
               xlink:href="#DejaVuSans-83"
               id="use600" />
          </g>
        </g>
        <g
           id="line2d_66">
          <path
             d="M 397.126125 182.197812  L 417.126125 182.197812  "
             style="fill:none;stroke:#1f77b4;stroke-dasharray:5.55,2.4;stroke-dashoffset:0;stroke-width:1.5;"
             id="path605" />
        </g>
        <g
           id="line2d_67" />
        <g
           id="text_18">
          <!-- CG -->
          <g
             transform="translate(425.126125 185.697812)scale(0.1 -0.1)"
             id="g613">
            <use
               xlink:href="#DejaVuSans-67"
               id="use609" />
            <use
               x="69.824219"
               xlink:href="#DejaVuSans-71"
               id="use611" />
          </g>
        </g>
        <g
           id="line2d_68">
          <path
             d="M 397.126125 196.875937  L 417.126125 196.875937  "
             style="fill:none;stroke:#ff7f0e;stroke-dasharray:5.55,2.4;stroke-dashoffset:0;stroke-width:1.5;"
             id="path616" />
        </g>
        <g
           id="line2d_69" />
        <g
           id="text_19">
          <!-- Newton-CG -->
          <g
             transform="translate(425.126125 200.375937)scale(0.1 -0.1)"
             id="g641">
            <defs
               id="defs621">
              <path
                 d="M 4.203125 54.6875  L 13.1875 54.6875  L 24.421875 12.015625  L 35.59375 54.6875  L 46.1875 54.6875  L 57.421875 12.015625  L 68.609375 54.6875  L 77.59375 54.6875  L 63.28125 0  L 52.6875 0  L 40.921875 44.828125  L 29.109375 0  L 18.5 0  z "
                 id="DejaVuSans-119" />
            </defs>
            <use
               xlink:href="#DejaVuSans-78"
               id="use623" />
            <use
               x="74.804688"
               xlink:href="#DejaVuSans-101"
               id="use625" />
            <use
               x="136.328125"
               xlink:href="#DejaVuSans-119"
               id="use627" />
            <use
               x="218.115234"
               xlink:href="#DejaVuSans-116"
               id="use629" />
            <use
               x="257.324219"
               xlink:href="#DejaVuSans-111"
               id="use631" />
            <use
               x="318.505859"
               xlink:href="#DejaVuSans-110"
               id="use633" />
            <use
               x="381.884766"
               xlink:href="#DejaVuSans-45"
               id="use635" />
            <use
               x="417.96875"
               xlink:href="#DejaVuSans-67"
               id="use637" />
            <use
               x="487.792969"
               xlink:href="#DejaVuSans-71"
               id="use639" />
          </g>
        </g>
        <g
           id="line2d_70">
          <path
             d="M 397.126125 211.554062  L 417.126125 211.554062  "
             style="fill:none;stroke:#2ca02c;stroke-dasharray:5.55,2.4;stroke-dashoffset:0;stroke-width:1.5;"
             id="path644" />
        </g>
        <g
           id="line2d_71" />
        <g
           id="text_20">
          <!-- SLSQP -->
          <g
             transform="translate(425.126125 215.054062)scale(0.1 -0.1)"
             id="g661">
            <defs
               id="defs649">
              <path
                 d="M 39.40625 66.21875  Q 28.65625 66.21875 22.328125 58.203125  Q 16.015625 50.203125 16.015625 36.375  Q 16.015625 22.609375 22.328125 14.59375  Q 28.65625 6.59375 39.40625 6.59375  Q 50.140625 6.59375 56.421875 14.59375  Q 62.703125 22.609375 62.703125 36.375  Q 62.703125 50.203125 56.421875 58.203125  Q 50.140625 66.21875 39.40625 66.21875  z M 53.21875 1.3125  L 66.21875 -12.890625  L 54.296875 -12.890625  L 43.5 -1.21875  Q 41.890625 -1.3125 41.03125 -1.359375  Q 40.1875 -1.421875 39.40625 -1.421875  Q 24.03125 -1.421875 14.8125 8.859375  Q 5.609375 19.140625 5.609375 36.375  Q 5.609375 53.65625 14.8125 63.9375  Q 24.03125 74.21875 39.40625 74.21875  Q 54.734375 74.21875 63.90625 63.9375  Q 73.09375 53.65625 73.09375 36.375  Q 73.09375 23.6875 67.984375 14.640625  Q 62.890625 5.609375 53.21875 1.3125  z "
                 id="DejaVuSans-81" />
            </defs>
            <use
               xlink:href="#DejaVuSans-83"
               id="use651" />
            <use
               x="63.476562"
               xlink:href="#DejaVuSans-76"
               id="use653" />
            <use
               x="119.189453"
               xlink:href="#DejaVuSans-83"
               id="use655" />
            <use
               x="182.666016"
               xlink:href="#DejaVuSans-81"
               id="use657" />
            <use
               x="261.376953"
               xlink:href="#DejaVuSans-80"
               id="use659" />
          </g>
        </g>
      </g>
    </g>
  </g>
  <defs
     id="defs670">
    <clipPath
       id="p96b0498954">
      <rect
         height="217.44"
         width="334.8"
         x="49.978125"
         y="22.318125"
         id="rect667" />
    </clipPath>
  </defs>
</svg>
