<?xml version="1.0" encoding="UTF-8" standalone="no"?>
<svg
   width="600"
   height="650"
   overflow="hidden"
   version="1.1"
   id="svg28"
   sodipodi:docname="dose_ae.svg"
   inkscape:version="1.2.1 (9c6d41e410, 2022-07-14)"
   xmlns:inkscape="http://www.inkscape.org/namespaces/inkscape"
   xmlns:sodipodi="http://sodipodi.sourceforge.net/DTD/sodipodi-0.dtd"
   xmlns="http://www.w3.org/2000/svg"
   xmlns:svg="http://www.w3.org/2000/svg">
  <defs
     id="defs32" />
  <sodipodi:namedview
     id="namedview30"
     pagecolor="#ffffff"
     bordercolor="#000000"
     borderopacity="0.25"
     inkscape:showpageshadow="2"
     inkscape:pageopacity="0.0"
     inkscape:pagecheckerboard="0"
     inkscape:deskcolor="#d1d1d1"
     showgrid="false"
     inkscape:zoom="0.259375"
     inkscape:cx="1281.9277"
     inkscape:cy="985.06024"
     inkscape:window-width="1920"
     inkscape:window-height="991"
     inkscape:window-x="-9"
     inkscape:window-y="-9"
     inkscape:window-maximized="1"
     inkscape:current-layer="svg28" />
  <g
     id="g338"
     transform="translate(-321.5,-23.083333)">
    <path
       d="m 862.5,134.5 -88.648,175 H 470.148 L 381.5,134.5 Z"
       stroke="#2b4719"
       stroke-width="1.33333"
       stroke-miterlimit="8"
       fill="#70ad47"
       fill-rule="evenodd"
       id="path4" />
    <path
       d="m 381.5,67.3336 c 0,-4.8786 3.955,-8.8335 8.834,-8.8335 h 463.333 c 4.878,0 8.833,3.9549 8.833,8.8335 v 35.3324 c 0,4.879 -3.955,8.834 -8.833,8.834 H 390.334 c -4.879,0 -8.834,-3.955 -8.834,-8.834 z"
       stroke="#172c51"
       stroke-width="1.33333"
       stroke-miterlimit="8"
       fill="#4472c4"
       fill-rule="evenodd"
       id="path6" />
    <text
       fill="#ffffff"
       font-family="Calibri, Calibri_MSFontService, sans-serif"
       font-weight="400"
       font-size="24px"
       id="text8"
       x="557.28003"
       y="92">Original dose</text>
    <path
       d="m 485.5,358 c 0,-14.635 11.864,-26.5 26.5,-26.5 h 220 c 14.636,0 26.5,11.865 26.5,26.5 v 0 c 0,14.636 -11.864,26.5 -26.5,26.5 H 512 c -14.636,0 -26.5,-11.864 -26.5,-26.5 z"
       stroke="#404040"
       stroke-width="1.33333"
       stroke-miterlimit="8"
       fill="#7f7f7f"
       fill-rule="evenodd"
       id="path10" />
    <text
       fill="#ffffff"
       font-family="Calibri, Calibri_MSFontService, sans-serif"
       font-weight="400"
       font-size="24px"
       id="text12"
       x="515.72699"
       y="365">Latent representation</text>
    <path
       d="m 381.5,582.5 88.648,-175 h 303.704 l 88.648,175 z"
       stroke="#64310f"
       stroke-width="1.33333"
       stroke-miterlimit="8"
       fill="#ed7d31"
       fill-rule="evenodd"
       id="path14" />
    <text
       fill="#ffffff"
       font-family="Calibri, Calibri_MSFontService, sans-serif"
       font-style="italic"
       font-weight="400"
       font-size="24px"
       id="text16"
       x="581.21301"
       y="513">Decoder</text>
    <path
       d="m 381.5,613.334 c 0,-4.879 3.955,-8.834 8.834,-8.834 h 463.333 c 4.878,0 8.833,3.955 8.833,8.834 v 35.332 c 0,4.879 -3.955,8.834 -8.833,8.834 H 390.334 c -4.879,0 -8.834,-3.955 -8.834,-8.834 z"
       stroke="#223f59"
       stroke-width="1.33333"
       stroke-miterlimit="8"
       fill="#5b9bd5"
       fill-rule="evenodd"
       id="path18" />
    <text
       fill="#ffffff"
       font-family="Calibri, Calibri_MSFontService, sans-serif"
       font-weight="400"
       font-size="24px"
       id="text20"
       x="525.104"
       y="639">Reconstructed dose</text>
    <rect
       x="354"
       y="42"
       width="535"
       height="354"
       stroke="#c00000"
       stroke-width="8"
       stroke-miterlimit="8"
       stroke-dasharray="32, 24"
       fill="none"
       id="rect22" />
    <text
       fill="#ffffff"
       font-family="Calibri, Calibri_MSFontService, sans-serif"
       font-style="italic"
       font-weight="700"
       font-size="24px"
       id="text24"
       x="581.21802"
       y="226">Encoder</text>
  </g>
</svg>
