<?xml version="1.0" encoding="UTF-8" standalone="no"?>
<svg
   width="1150"
   height="350"
   overflow="hidden"
   version="1.1"
   id="svg1185"
   sodipodi:docname="rl_setup.svg"
   inkscape:version="1.2.1 (9c6d41e410, 2022-07-14)"
   xmlns:inkscape="http://www.inkscape.org/namespaces/inkscape"
   xmlns:sodipodi="http://sodipodi.sourceforge.net/DTD/sodipodi-0.dtd"
   xmlns="http://www.w3.org/2000/svg"
   xmlns:svg="http://www.w3.org/2000/svg">
  <defs
     id="defs1189" />
  <sodipodi:namedview
     id="namedview1187"
     pagecolor="#ffffff"
     bordercolor="#000000"
     borderopacity="0.25"
     inkscape:showpageshadow="2"
     inkscape:pageopacity="0.0"
     inkscape:pagecheckerboard="0"
     inkscape:deskcolor="#d1d1d1"
     showgrid="false"
     inkscape:zoom="0.73362329"
     inkscape:cx="604.5337"
     inkscape:cy="135.62819"
     inkscape:window-width="1920"
     inkscape:window-height="991"
     inkscape:window-x="-9"
     inkscape:window-y="-9"
     inkscape:window-maximized="1"
     inkscape:current-layer="svg1185" />
  <g
     id="g1377"
     transform="translate(-33.227179,-209.55033)">
    <path
       d="M 917,384.902 747,334.91 m 170,0 -170,-49.992 m 0,99.984 170,-49.992 m -170,99.984 170,-49.992 m 0,0 -170,-99.984 M 917,334.91 747,234.926 m 0,199.968 170,-99.984 M 747,484.926 917,384.942 M 747,484.926 917,334.95 m 0,49.952 -170,-149.976 m 0,149.976 H 917 M 747,334.91 h 170"
       stroke="#000000"
       stroke-width="2"
       stroke-miterlimit="8"
       fill="none"
       fill-rule="evenodd"
       id="path1115" />
    <path
       d="m 915.8652,384.9272 c 0,8.8365 7.1635,16 16,16 8.83653,0 16,-7.1635 16,-16 0,-8.83662 -7.16347,-16.00009 -16,-16.00009 -8.8365,0 -16,7.16347 -16,16.00009 z"
       stroke="#92d050"
       stroke-width="4"
       stroke-miterlimit="8"
       fill="none"
       fill-rule="evenodd"
       id="path1117" />
    <path
       d="m 915.8652,334.9272 c 0,8.8365 7.1635,16 16,16 8.83653,0 16,-7.1635 16,-16 0,-8.83662 -7.16347,-16.00009 -16,-16.00009 -8.8365,0 -16,7.16347 -16,16.00009 z"
       stroke="#92d050"
       stroke-width="4"
       stroke-miterlimit="8"
       fill="none"
       fill-rule="evenodd"
       id="path1119" />
    <path
       d="m 347,434.894 170,-49.992 m -170,0 170,-49.992 m -170,0 170,-49.992 m -170,0 170,-49.992 m 0,99.984 -170,-49.992 M 517,384.902 347,334.91 M 517,434.894 347,384.902 M 517,484.926 347,434.894 m 0,0 170,-99.984 M 347,384.902 517,284.918 M 347,334.91 517,234.926 m 0,149.976 -170,-99.984 M 517,434.894 347,334.91 M 517,484.926 347,384.902 M 517,484.926 347,334.91 M 517,434.894 347,284.918 m 0,99.984 170,-149.976 M 347,434.894 517,284.918 M 347,434.894 517,234.926 m 0,250 L 347,284.918 M 517,434.894 H 347 M 517,384.902 H 347 M 517,334.91 H 347 M 517,284.918 H 347"
       stroke="#000000"
       stroke-width="2"
       stroke-miterlimit="8"
       fill="none"
       fill-rule="evenodd"
       id="path1121" />
    <path
       d="m 348,384.927 c 0,8.837 -7.163,16 -16,16 -8.837,0 -16,-7.163 -16,-16 0,-8.836 7.163,-16 16,-16 8.837,0 16,7.164 16,16 z"
       stroke="#00b050"
       stroke-width="4"
       stroke-miterlimit="8"
       fill="none"
       fill-rule="evenodd"
       id="path1123" />
    <path
       d="m 348,434.927 c 0,8.837 -7.163,16 -16,16 -8.837,0 -16,-7.163 -16,-16 0,-8.836 7.163,-16 16,-16 8.837,0 16,7.164 16,16 z"
       stroke="#00b050"
       stroke-width="4"
       stroke-miterlimit="8"
       fill="none"
       fill-rule="evenodd"
       id="path1125" />
    <path
       d="m 348,334.927 c 0,8.837 -7.163,16 -16,16 -8.837,0 -16,-7.163 -16,-16 0,-8.836 7.163,-16 16,-16 8.837,0 16,7.164 16,16 z"
       stroke="#0070c0"
       stroke-width="4"
       stroke-miterlimit="8"
       fill="none"
       fill-rule="evenodd"
       id="path1127" />
    <path
       d="m 348,284.927 c 0,8.837 -7.163,16 -16,16 -8.837,0 -16,-7.163 -16,-16 0,-8.836 7.163,-16 16,-16 8.837,0 16,7.164 16,16 z"
       stroke="#0070c0"
       stroke-width="4"
       stroke-miterlimit="8"
       fill="none"
       fill-rule="evenodd"
       id="path1129" />
    <path
       d="M 717,484.926 547,434.934 m 170,-0.04 -170,-49.992 m 170,0 -170,-49.992 m 170,0 -170,-49.992 m 170,0 -170,-49.992 m 0,49.992 170,-49.992 M 547,334.91 717,284.918 M 547,384.902 717,334.91 M 547,434.894 717,384.902 M 547,484.926 717,434.934 m 0,49.992 -170,-99.984 M 717,434.894 547,334.91 M 717,384.902 547,284.918 M 717,334.91 547,234.926 m 0,99.984 170,-99.984 M 547,384.902 717,284.918 M 547,434.894 717,334.91 M 547,484.926 717,384.942 M 547,484.926 717,334.95 M 547,434.894 717,284.918 M 547,384.902 717,234.926 M 717,384.902 547,234.926 M 717,434.894 547,284.918 M 717,484.926 547,334.95 M 717,484.926 547,284.958 M 717,434.894 547,234.926 m 0,199.968 170,-199.968 m -170,250 170,-199.968 m 0,199.968 -170,-249.96 m 0,249.96 170,-249.96 M 547,484.926 H 717 M 547,434.894 H 717 M 547,384.902 H 717 M 547,334.91 H 717 M 547,284.918 H 717 M 547,234.926 h 170"
       stroke="#000000"
       stroke-width="2"
       stroke-miterlimit="8"
       fill="none"
       fill-rule="evenodd"
       id="path1131" />
    <path
       d="m 715.9066,484.9272 c 0,8.8365 7.1635,16 16,16 8.83658,0 16.00008,-7.1635 16.00008,-16 0,-8.83662 -7.1635,-15.99999 -16.00008,-15.99999 -8.8365,0 -16,7.16337 -16,15.99999 z"
       stroke="#000000"
       stroke-width="4"
       stroke-miterlimit="8"
       fill="none"
       fill-rule="evenodd"
       id="path1133" />
    <path
       d="m 715.9066,384.9272 c 0,8.8365 7.1635,16 16,16 8.83658,0 16.00008,-7.1635 16.00008,-16 0,-8.83662 -7.1635,-16.00009 -16.00008,-16.00009 -8.8365,0 -16,7.16347 -16,16.00009 z"
       stroke="#000000"
       stroke-width="4"
       stroke-miterlimit="8"
       fill="none"
       fill-rule="evenodd"
       id="path1135" />
    <path
       d="m 715.9066,434.9272 c 0,8.8365 7.1635,16 16,16 8.83658,0 16.00008,-7.1635 16.00008,-16 0,-8.83662 -7.1635,-16.00009 -16.00008,-16.00009 -8.8365,0 -16,7.16347 -16,16.00009 z"
       stroke="#000000"
       stroke-width="4"
       stroke-miterlimit="8"
       fill="none"
       fill-rule="evenodd"
       id="path1137" />
    <path
       d="m 715.9066,334.9272 c 0,8.8365 7.1635,16 16,16 8.83658,0 16.00008,-7.1635 16.00008,-16 0,-8.83662 -7.1635,-16.00009 -16.00008,-16.00009 -8.8365,0 -16,7.16347 -16,16.00009 z"
       stroke="#000000"
       stroke-width="4"
       stroke-miterlimit="8"
       fill="none"
       fill-rule="evenodd"
       id="path1139" />
    <path
       d="m 715.9066,284.9272 c 0,8.8365 7.1635,16 16,16 8.83658,0 16.00008,-7.1635 16.00008,-16 0,-8.83662 -7.1635,-16.00009 -16.00008,-16.00009 -8.8365,0 -16,7.16347 -16,16.00009 z"
       stroke="#000000"
       stroke-width="4"
       stroke-miterlimit="8"
       fill="none"
       fill-rule="evenodd"
       id="path1141" />
    <path
       d="m 715.9066,234.9272 c 0,8.8365 7.1635,16 16,16 8.83658,0 16.00008,-7.1635 16.00008,-16 0,-8.83662 -7.1635,-16.00009 -16.00008,-16.00009 -8.8365,0 -16,7.16347 -16,16.00009 z"
       stroke="#000000"
       stroke-width="4"
       stroke-miterlimit="8"
       fill="none"
       fill-rule="evenodd"
       id="path1143" />
    <path
       d="m 548,484.927 c 0,8.837 -7.163,16 -16,16 -8.836,0 -16,-7.163 -16,-16 0,-8.836 7.164,-16 16,-16 8.837,0 16,7.164 16,16 z"
       stroke="#000000"
       stroke-width="4"
       stroke-miterlimit="8"
       fill="none"
       fill-rule="evenodd"
       id="path1145" />
    <path
       d="m 548,384.927 c 0,8.837 -7.163,16 -16,16 -8.836,0 -16,-7.163 -16,-16 0,-8.836 7.164,-16 16,-16 8.837,0 16,7.164 16,16 z"
       stroke="#000000"
       stroke-width="4"
       stroke-miterlimit="8"
       fill="none"
       fill-rule="evenodd"
       id="path1147" />
    <path
       d="m 548,434.927 c 0,8.837 -7.163,16 -16,16 -8.836,0 -16,-7.163 -16,-16 0,-8.836 7.164,-16 16,-16 8.837,0 16,7.164 16,16 z"
       stroke="#000000"
       stroke-width="4"
       stroke-miterlimit="8"
       fill="none"
       fill-rule="evenodd"
       id="path1149" />
    <path
       d="m 548,334.927 c 0,8.837 -7.163,16 -16,16 -8.836,0 -16,-7.163 -16,-16 0,-8.836 7.164,-16 16,-16 8.837,0 16,7.164 16,16 z"
       stroke="#000000"
       stroke-width="4"
       stroke-miterlimit="8"
       fill="none"
       fill-rule="evenodd"
       id="path1151" />
    <path
       d="m 548,284.927 c 0,8.837 -7.163,16 -16,16 -8.836,0 -16,-7.163 -16,-16 0,-8.836 7.164,-16 16,-16 8.837,0 16,7.164 16,16 z"
       stroke="#000000"
       stroke-width="4"
       stroke-miterlimit="8"
       fill="none"
       fill-rule="evenodd"
       id="path1153" />
    <path
       d="m 548,234.927 c 0,8.837 -7.163,16 -16,16 -8.836,0 -16,-7.163 -16,-16 0,-8.836 7.164,-16 16,-16 8.837,0 16,7.164 16,16 z"
       stroke="#000000"
       stroke-width="4"
       stroke-miterlimit="8"
       fill="none"
       fill-rule="evenodd"
       id="path1155" />
    <path
       d="m 316,351 c -8.837,0 -16,-1.194 -16,-2.667 v -35.666 c 0,-1.473 -7.163,-2.667 -16,-2.667 8.837,0 16,-1.194 16,-2.667 v -35.666 c 0,-1.473 7.164,-2.667 16,-2.667"
       stroke="#0070c0"
       stroke-width="4"
       stroke-miterlimit="8"
       fill="none"
       fill-rule="evenodd"
       id="path1157" />
    <text
       fill="#0070c0"
       font-family="Calibri, Calibri_MSFontService, sans-serif"
       font-weight="400"
       font-size="24px"
       id="text1159"
       x="144.11"
       y="317">Current</text>
    <text
       fill="#0070c0"
       font-family="Calibri, Calibri_MSFontService, sans-serif"
       font-weight="700"
       font-size="24px"
       id="text1161"
       x="223.91"
       y="317">Dose</text>
    <text
       fill="#00b050"
       font-family="Calibri, Calibri_MSFontService, sans-serif"
       font-weight="400"
       font-size="24px"
       id="text1163"
       x="115.888"
       y="418">Current</text>
    <text
       fill="#00b050"
       font-family="Calibri, Calibri_MSFontService, sans-serif"
       font-weight="700"
       font-size="24px"
       id="text1165"
       x="195.688"
       y="418">Weights</text>
    <path
       d="m 316,452 c -8.837,0 -16,-1.194 -16,-2.667 v -36.166 c 0,-1.473 -7.163,-2.667 -16,-2.667 8.837,0 16,-1.194 16,-2.667 v -36.166 c 0,-1.473 7.164,-2.667 16,-2.667"
       stroke="#00b050"
       stroke-width="4"
       stroke-miterlimit="8"
       fill="none"
       fill-rule="evenodd"
       id="path1167" />
    <text
       fill="#92d050"
       font-family="Calibri, Calibri_MSFontService, sans-serif"
       font-weight="700"
       font-size="24px"
       id="text1169"
       x="993.54901"
       y="367">Weights</text>
    <text
       fill="#92d050"
       font-family="Calibri, Calibri_MSFontService, sans-serif"
       font-style="italic"
       font-weight="700"
       font-size="24px"
       id="text1171"
       x="1079.64"
       y="367">Changes</text>
    <path
       d="m 953,319 c 8.837,0 16,1.194 16,2.667 v 35.666 c 0,1.473 7.163,2.667 16,2.667 -8.837,0 -16,1.194 -16,2.667 v 35.666 c 0,1.473 -7.164,2.667 -16,2.667"
       stroke="#92d050"
       stroke-width="4"
       stroke-miterlimit="8"
       fill="none"
       fill-rule="evenodd"
       id="path1173" />
    <path
       d="m 1117.45,380.433 c 2.52,91.382 -90.11,167.059 -206.892,169.029 -0.464,0.008 -0.928,0.014 -1.392,0.02"
       stroke="#c00000"
       stroke-width="5.33333"
       stroke-miterlimit="8"
       fill="none"
       fill-rule="evenodd"
       id="path1175" />
    <path
       d="m 426.821,552.155 -20.281,-0.406 -19.803,-1.52 -19.149,-2.577 -18.396,-3.582 -17.544,-4.533 -16.592,-5.432 -15.542,-6.278 -14.392,-7.075 -13.144,-7.823 -11.765,-8.502 -5.383,-4.53 -4.983,-4.668 -4.593,-4.82 -4.189,-4.968 -3.773,-5.11 -3.34,-5.245 -2.893,-5.375 -2.43,-5.498 -1.975,-5.682 -1.464,-7.446 5.234,-1.029 1.427,7.262 -0.098,-0.361 1.878,5.402 -0.08,-0.202 2.345,5.303 -0.091,-0.186 2.797,5.198 -0.099,-0.168 3.239,5.085 -0.104,-0.151 3.666,4.966 -0.107,-0.136 4.082,4.84 -0.108,-0.12 4.485,4.707 -0.107,-0.106 4.875,4.567 -0.106,-0.094 5.253,4.421 -0.155,-0.121 11.59,8.375 -0.198,-0.13 12.95,7.707 -0.188,-0.102 14.209,6.986 -0.177,-0.08 15.368,6.209 -0.169,-0.062 16.426,5.377 -0.163,-0.047 17.384,4.491 -0.158,-0.035 18.241,3.551 -0.154,-0.025 18.996,2.557 -0.152,-0.016 19.651,1.507 -0.15,-0.007 20.206,0.404 z m -206.724,-98.17 6.443,-16.688 9.484,15.168 z"
       fill="#c00000"
       id="path1177" />
    <path
       d="M 426.5,549.507 909.419,549.5"
       stroke="#c00000"
       stroke-width="5.33333"
       stroke-miterlimit="8"
       fill="none"
       fill-rule="evenodd"
       id="path1179" />
    <path
       d="m 405.115,552.159 -35.448,-0.572 -34.519,-1.981 -33.345,-3.318 -16.205,-2.141 -15.836,-2.449 -15.459,-2.748 -15.06,-3.041 -14.641,-3.323 -14.198,-3.598 -13.736,-3.864 -13.25,-4.122 -12.744,-4.373 -12.215,-4.613 -11.667,-4.848 -11.095,-5.073 -10.503,-5.292 -9.89,-5.503 -9.255,-5.707 -8.5973,-5.905 -7.9191,-6.097 -7.2184,-6.283 -6.4945,-6.463 -5.7465,-6.64 -4.9731,-6.811 -4.1722,-6.977 -3.342,-7.136 -2.481,-7.283 -1.589,-7.417 -0.6664,-7.517 0.1632,-6.225 0.8087,-6.177 1.4453,-6.13 2.0713,-6.07 2.6859,-5.998 3.2893,-5.919 3.8819,-5.833 4.4648,-5.739 5.0387,-5.641 5.6046,-5.538 6.1629,-5.43 6.7144,-5.315 7.2595,-5.196 7.809,-5.078 5.441,-3.151 2.672,4.616 -5.38,3.116 0.117,-0.072 -7.702,5.008 0.098,-0.067 -7.1579,5.123 0.1031,-0.077 -6.6088,5.232 0.1076,-0.09 -6.0531,5.332 0.1116,-0.104 -5.4911,5.426 0.1145,-0.121 -4.923,5.512 0.116,-0.139 -4.3487,5.59 0.1151,-0.16 -3.7682,5.662 0.1111,-0.182 -3.1816,5.725 0.1029,-0.206 -2.5886,5.781 0.0899,-0.228 -1.9897,5.83 0.0718,-0.249 -1.3845,5.872 0.0486,-0.266 -0.7731,5.906 0.0217,-0.276 -0.1555,5.932 -0.0095,-0.305 0.6384,7.202 -0.0488,-0.323 1.5219,7.104 -0.0833,-0.302 2.3833,6.997 -0.1093,-0.271 3.2228,6.881 -0.1263,-0.238 4.0403,6.757 -0.1349,-0.204 4.8358,6.623 -0.1373,-0.173 5.6094,6.482 -0.1353,-0.145 6.361,6.33 -0.1304,-0.121 7.0906,6.172 -0.124,-0.102 7.7985,6.003 -0.117,-0.085 8.484,5.827 -0.11,-0.071 9.148,5.641 -0.104,-0.06 9.79,5.447 -0.097,-0.051 10.409,5.244 -0.091,-0.044 11.008,5.033 -0.086,-0.037 11.583,4.813 -0.081,-0.032 12.137,4.584 -0.077,-0.028 12.668,4.346 -0.073,-0.024 13.179,4.1 -0.07,-0.02 13.667,3.845 -0.067,-0.018 14.132,3.581 -0.065,-0.016 14.577,3.309 -0.062,-0.013 14.998,3.028 -0.061,-0.012 15.399,2.738 -0.059,-0.01 15.777,2.439 -0.058,-0.008 16.133,2.132 -0.085,-0.01 33.247,3.308 -0.111,-0.009 34.408,1.975 -0.11,-0.004 35.393,0.571 z M 110.786,324.26 l 17.868,-0.852 -10.039,14.806 z"
       fill="#c00000"
       id="path1181" />
  </g>
</svg>
