<?xml version="1.0" encoding="UTF-8" standalone="no"?>
<svg
   width="1280"
   height="200"
   overflow="hidden"
   version="1.1"
   id="svg10043"
   sodipodi:docname="rt_workflow.svg"
   inkscape:version="1.2.1 (9c6d41e410, 2022-07-14)"
   xmlns:inkscape="http://www.inkscape.org/namespaces/inkscape"
   xmlns:sodipodi="http://sodipodi.sourceforge.net/DTD/sodipodi-0.dtd"
   xmlns="http://www.w3.org/2000/svg"
   xmlns:svg="http://www.w3.org/2000/svg">
  <defs
     id="defs10047" />
  <sodipodi:namedview
     id="namedview10045"
     pagecolor="#ffffff"
     bordercolor="#000000"
     borderopacity="0.25"
     inkscape:showpageshadow="2"
     inkscape:pageopacity="0.0"
     inkscape:pagecheckerboard="0"
     inkscape:deskcolor="#d1d1d1"
     showgrid="false"
     inkscape:zoom="0.51875"
     inkscape:cx="704.57831"
     inkscape:cy="249.63855"
     inkscape:window-width="1920"
     inkscape:window-height="991"
     inkscape:window-x="-9"
     inkscape:window-y="-9"
     inkscape:window-maximized="1"
     inkscape:current-layer="svg10043" />
  <g
     id="g10217"
     transform="translate(-0.5000248,-185.5)">
    <rect
       x="539.5"
       y="195.5"
       width="533"
       height="180"
       stroke="#64310f"
       stroke-width="1.33333"
       stroke-miterlimit="8"
       fill="#ed7d31"
       id="rect9991" />
    <text
       fill="#ffffff"
       font-family="Calibri, Calibri_MSFontService, sans-serif"
       font-weight="700"
       font-size="24px"
       id="text9993"
       x="740.95599"
       y="235">Optimization</text>
    <path
       d="m 740.563,238.191 h 64.5 64.5 v 2 h -64.5 -64.5 z"
       fill="#ffffff"
       fill-rule="evenodd"
       id="path9995" />
    <path
       d="m 916.5,300.834 c 0,-6.26 5.074,-11.334 11.334,-11.334 h 120.336 c 6.26,0 11.33,5.074 11.33,11.334 v 45.333 c 0,6.259 -5.07,11.333 -11.33,11.333 H 927.834 c -6.26,0 -11.334,-5.074 -11.334,-11.333 z"
       stroke="#6c4f00"
       stroke-width="1.33333"
       stroke-miterlimit="8"
       fill="#ffc000"
       fill-rule="evenodd"
       id="path9997" />
    <text
       fill="#ffffff"
       font-family="Calibri, Calibri_MSFontService, sans-serif"
       font-weight="400"
       font-size="24px"
       id="text9999"
       x="967.00897"
       y="316">Leaf</text>
    <text
       fill="#ffffff"
       font-family="Calibri, Calibri_MSFontService, sans-serif"
       font-weight="400"
       font-size="24px"
       id="text10001"
       x="931.10901"
       y="345">Sequencing</text>
    <path
       d="m 746.5,300.834 c 0,-6.26 5.074,-11.334 11.334,-11.334 h 133.333 c 6.259,0 11.333,5.074 11.333,11.334 v 45.333 c 0,6.259 -5.074,11.333 -11.333,11.333 H 757.834 c -6.26,0 -11.334,-5.074 -11.334,-11.333 z"
       stroke="#6c4f00"
       stroke-width="1.33333"
       stroke-miterlimit="8"
       fill="#ffc000"
       fill-rule="evenodd"
       id="path10003" />
    <text
       fill="#ffffff"
       font-family="Calibri, Calibri_MSFontService, sans-serif"
       font-weight="400"
       font-size="24px"
       id="text10005"
       x="761.16998"
       y="316">Fluence Map</text>
    <text
       fill="#ffffff"
       font-family="Calibri, Calibri_MSFontService, sans-serif"
       font-weight="400"
       font-size="24px"
       id="text10007"
       x="761.37"
       y="345">Optimization</text>
    <path
       d="m 552.5,284.834 c 0,-9.573 7.761,-17.334 17.334,-17.334 h 146.332 c 9.573,0 17.334,7.761 17.334,17.334 v 69.332 c 0,9.573 -7.761,17.334 -17.334,17.334 H 569.834 c -9.573,0 -17.334,-7.761 -17.334,-17.334 z"
       stroke="#6c4f00"
       stroke-width="1.33333"
       stroke-miterlimit="8"
       fill="#ffc000"
       fill-rule="evenodd"
       id="path10009" />
    <text
       fill="#ffffff"
       font-family="Calibri, Calibri_MSFontService, sans-serif"
       font-weight="400"
       font-size="24px"
       id="text10011"
       x="614.76099"
       y="297">Beam</text>
    <text
       fill="#ffffff"
       font-family="Calibri, Calibri_MSFontService, sans-serif"
       font-weight="400"
       font-size="24px"
       id="text10013"
       x="586.62799"
       y="326">Orientation</text>
    <text
       fill="#ffffff"
       font-family="Calibri, Calibri_MSFontService, sans-serif"
       font-weight="400"
       font-size="24px"
       id="text10015"
       x="579.70801"
       y="355">Optimization</text>
    <rect
       x="9.5000496"
       y="210.5"
       width="484"
       height="150"
       stroke="#172c51"
       stroke-width="1.33333"
       stroke-miterlimit="8"
       fill="#4472c4"
       id="rect10017" />
    <text
       fill="#ffffff"
       font-family="Calibri, Calibri_MSFontService, sans-serif"
       font-style="italic"
       font-weight="700"
       font-size="24px"
       id="text10019"
       x="219.91499"
       y="235">Inputs</text>
    <path
       d="m 20.5001,283.667 c 0,-5.615 4.5518,-10.167 10.1669,-10.167 h 153.666 c 5.615,0 10.167,4.552 10.167,10.167 v 40.666 c 0,5.615 -4.552,10.167 -10.167,10.167 H 30.667 c -5.6151,0 -10.1669,-4.552 -10.1669,-10.167 z"
       stroke="#223f59"
       stroke-width="1.33333"
       stroke-miterlimit="8"
       fill="#5b9bd5"
       fill-rule="evenodd"
       id="path10021" />
    <text
       fill="#ffffff"
       font-family="Calibri, Calibri_MSFontService, sans-serif"
       font-style="italic"
       font-weight="400"
       font-size="24px"
       id="text10023"
       x="46.847698"
       y="311">Patient Scan</text>
    <path
       d="m 202.5,273.667 c 0,-8.376 6.791,-15.167 15.167,-15.167 h 245.666 c 8.377,0 15.167,6.791 15.167,15.167 v 60.666 c 0,8.377 -6.79,15.167 -15.167,15.167 H 217.667 c -8.376,0 -15.167,-6.79 -15.167,-15.167 z"
       stroke="#223f59"
       stroke-width="1.33333"
       stroke-miterlimit="8"
       fill="#5b9bd5"
       fill-rule="evenodd"
       id="path10025" />
    <text
       fill="#ffffff"
       font-family="Calibri, Calibri_MSFontService, sans-serif"
       font-style="italic"
       font-weight="400"
       font-size="24px"
       id="text10027"
       x="233.864"
       y="297">Structures Contouring</text>
    <text
       fill="#ffffff"
       font-family="Calibri, Calibri_MSFontService, sans-serif"
       font-style="italic"
       font-weight="400"
       font-size="24px"
       id="text10029"
       x="276.35699"
       y="326">(PTV + OARs)</text>
    <path
       d="m 1118.5,255 c 0,-8.56 6.94,-15.5 15.5,-15.5 h 122 c 8.56,0 15.5,6.94 15.5,15.5 v 62 c 0,8.56 -6.94,15.5 -15.5,15.5 h -122 c -8.56,0 -15.5,-6.94 -15.5,-15.5 z"
       stroke="#2b4719"
       stroke-width="1.33333"
       stroke-miterlimit="8"
       fill="#70ad47"
       fill-rule="evenodd"
       id="path10031" />
    <text
       fill="#ffffff"
       font-family="Calibri, Calibri_MSFontService, sans-serif"
       font-style="italic"
       font-weight="700"
       font-size="24px"
       id="text10033"
       x="1142.34"
       y="278">Treatment</text>
    <text
       fill="#ffffff"
       font-family="Calibri, Calibri_MSFontService, sans-serif"
       font-style="italic"
       font-weight="700"
       font-size="24px"
       id="text10035"
       x="1153.5699"
       y="307">Delivery</text>
    <path
       d="m 493,281 h 25.617 v 8 H 493 Z m 21.617,-8 24,12 -24,12 z"
       id="path10037" />
    <path
       d="m 1072,289 25.6172,-6e-5 v -8 L 1072,281 Z m 21.6172,7.9999 24,-12 -24,-11.9999 z"
       id="path10039" />
  </g>
</svg>
